<?xml version="1.0" encoding="utf-8"?>
<!-- Generator: Adobe Illustrator 17.0.0, SVG Export Plug-In . SVG Version: 6.00 Build 0)  -->
<!DOCTYPE svg PUBLIC "-//W3C//DTD SVG 1.1//EN" "http://www.w3.org/Graphics/SVG/1.1/DTD/svg11.dtd">
<svg version="1.1" id="Layer_1" xmlns="http://www.w3.org/2000/svg" xmlns:xlink="http://www.w3.org/1999/xlink" x="0px" y="0px"
	 width="1440px" height="900px" viewBox="0 0 1440 900" enable-background="new 0 0 1440 900" xml:space="preserve">
<g id="logo">
	<path id="S" d="M1000.805,418.913l11.507,13.426c5.754,6.52,7.032,12.018,4.859,24.933c-2.302,12.785-9.207,19.307-24.933,19.307
		c-15.727,0-20.458-6.521-18.157-19.307L976,446.147c0.384-2.301,1.918-3.58,4.219-3.58h6.266c2.301,0,3.324,1.279,2.94,3.58
		l-1.918,11.125c-1.023,5.242,0.256,8.567,6.521,8.567c6.266,0,8.695-3.325,9.717-8.567c1.278-7.672,1.023-11.252-3.709-16.878
		l-11.507-13.554c-5.754-6.393-7.032-11.891-4.73-24.805c2.173-12.787,9.206-19.307,24.933-19.307
		c15.726,0,20.329,6.52,18.156,19.307l-2.046,11.124c-0.385,2.302-1.919,3.581-4.22,3.581h-6.265c-2.301,0-3.324-1.279-2.94-3.581
		l2.046-11.124c0.895-5.243-0.384-8.567-6.649-8.567c-6.264,0-8.695,3.324-9.589,8.567
		C995.818,409.835,996.201,413.287,1000.805,418.913z"/>
	<path id="B" d="M923.195,475.939c-2.301,0-3.452-1.278-2.94-3.58l15.088-85.412c0.384-2.301,1.79-3.58,4.091-3.58h15.599
		c16.75,0,21.481,7.032,19.052,20.457l-1.023,6.01c-1.791,9.845-5.882,16.366-14.704,18.923l-0.256,0.895
		c7.927,2.814,9.845,9.206,8.055,18.924l-1.151,6.904c-2.43,13.426-9.462,20.458-26.212,20.458H923.195z M940.585,465.199
		c7.287,0,9.973-3.709,10.996-9.718l1.918-11.124c1.151-6.01-0.256-9.717-7.544-9.717h-5.753l-5.371,30.559H940.585z M947.872,423.9
		c7.288,0,9.974-3.709,10.997-9.718l1.79-10.357c1.023-6.01-0.256-9.717-7.544-9.717h-5.754l-5.242,29.792H947.872z"/>
	<path id="A" d="M900.821,472.615l0.511-15.855h-17.005l-4.987,15.855c-0.639,2.301-2.301,3.324-4.091,3.324h-6.393
		c-2.557,0-3.452-1.79-2.685-4.348l28.001-84.771c0.767-2.429,2.173-3.452,4.348-3.452h14.064c2.174,0,3.325,1.023,3.197,3.452
		l-2.047,84.771c0,2.558-1.534,4.348-3.963,4.348h-5.882C902.099,475.939,900.693,475.044,900.821,472.615z M887.523,446.02h14.193
		l0.895-24.677l1.79-28.001h-0.895l-8.055,28.001L887.523,446.02z"/>
	<path id="L" d="M841.495,465.199h20.201c2.302,0,3.453,1.279,3.069,3.58l-0.639,3.581c-0.511,2.301-1.919,3.58-4.22,3.58h-30.048
		c-2.301,0-3.452-1.278-2.94-3.58l15.088-85.412c0.383-2.301,1.79-3.58,4.091-3.58h6.265c2.301,0,3.453,1.278,3.069,3.58
		L841.495,465.199z"/>
	<path id="Y" d="M797.77,383.368c1.534,0,2.94,0.639,3.068,2.429l2.301,21.353l0.895,18.667h0.896l7.415-18.667l9.718-21.353
		c0.895-1.79,2.557-2.429,4.091-2.429h6.521c2.94,0,3.58,2.429,2.301,4.73l-26.211,53.191l-5.37,31.07
		c-0.511,2.301-1.918,3.58-4.219,3.58h-6.265c-2.301,0-3.452-1.278-2.94-3.58l5.369-31.07l-7.416-53.191
		c-0.256-2.429,1.152-4.73,3.964-4.73H797.77z"/>
	<path id="G" d="M770.538,428.119c2.301,0,3.452,1.278,3.068,3.581l-4.475,25.572c-2.301,12.785-9.206,19.307-24.933,19.307
		c-15.727,0-20.458-6.521-18.156-19.307l9.717-55.236c2.173-12.787,9.206-19.307,24.933-19.307s20.329,6.52,18.156,19.307
		l-1.662,9.206c-0.384,2.301-1.919,3.581-4.22,3.581h-6.264c-2.302,0-3.325-1.279-2.941-3.581l1.662-9.206
		c0.896-5.243-0.384-8.567-6.648-8.567c-6.265,0-8.694,3.324-9.59,8.567l-9.717,55.236c-1.023,5.242,0.256,8.567,6.521,8.567
		c6.265,0,8.694-3.325,9.717-8.567l3.197-18.413h-4.987c-2.301,0-3.452-1.278-2.94-3.58l0.639-3.58
		c0.384-2.302,1.79-3.581,4.091-3.581H770.538z"/>
	<path id="E" d="M728.986,383.368c2.301,0,3.452,1.278,3.068,3.58l-0.639,3.581c-0.511,2.301-2.045,3.58-4.347,3.58h-20.203
		l-5.243,30.176h15.343c2.302,0,3.325,1.278,2.942,3.58l-0.639,3.581c-0.384,2.301-1.919,3.58-4.22,3.58h-15.343l-5.369,30.175
		h20.202c2.301,0,3.452,1.279,3.068,3.58l-0.639,3.581c-0.511,2.301-1.918,3.58-4.219,3.58H682.7c-2.301,0-3.452-1.278-2.94-3.58
		l15.088-85.412c0.383-2.301,1.79-3.58,4.091-3.58H728.986z"/>
	<path id="T" d="M670.938,394.108l-13.682,78.251c-0.511,2.301-1.918,3.58-4.219,3.58h-6.265c-2.301,0-3.452-1.278-2.94-3.58
		l13.68-78.251h-13.808c-2.301,0-3.325-1.278-2.814-3.58l0.64-3.581c0.384-2.301,1.79-3.58,4.091-3.58h41.043
		c2.301,0,3.452,1.278,3.068,3.58l-0.639,3.581c-0.511,2.301-2.046,3.58-4.347,3.58H670.938z"/>
	<path id="A_1_" d="M618.516,472.615l0.511-15.855h-17.005l-4.987,15.855c-0.639,2.301-2.301,3.324-4.091,3.324h-6.393
		c-2.557,0-3.452-1.79-2.685-4.348l28.001-84.771c0.767-2.429,2.174-3.452,4.348-3.452h14.065c2.173,0,3.324,1.023,3.196,3.452
		l-2.046,84.771c0,2.558-1.535,4.348-3.964,4.348h-5.882C619.794,475.939,618.388,475.044,618.516,472.615z M605.218,446.02h14.193
		l0.895-24.677l1.791-28.001h-0.896l-8.055,28.001L605.218,446.02z"/>
	<path id="R" d="M573,435.024l7.288,35.929c0.384,1.919-0.639,4.859-3.835,4.987h-6.01c-1.918,0-2.94-0.895-3.324-2.429
		l-7.16-36.697h-5.498l-6.137,35.546c-0.511,2.301-1.918,3.58-4.219,3.58h-6.265c-2.301,0-3.452-1.278-2.94-3.58l15.088-85.412
		c0.384-2.301,1.79-3.58,4.091-3.58h16.238c16.75,0,21.481,7.032,19.051,20.457l-2.173,12.531
		C585.531,426.074,581.695,432.339,573,435.024z M562.771,426.074c7.288,0,9.973-3.709,10.997-9.717l2.173-12.531
		c1.023-6.01-0.256-9.717-7.544-9.717h-6.393l-5.626,31.965H562.771z"/>
	<path id="T_1_" d="M526.077,394.108l-13.681,78.251c-0.511,2.301-1.918,3.58-4.219,3.58h-6.265c-2.301,0-3.452-1.278-2.94-3.58
		l13.68-78.251h-13.808c-2.301,0-3.325-1.278-2.814-3.58l0.64-3.581c0.384-2.301,1.79-3.58,4.091-3.58h41.043
		c2.301,0,3.452,1.278,3.068,3.58l-0.639,3.581c-0.511,2.301-2.046,3.58-4.347,3.58H526.077z"/>
	<path id="S_1_" d="M463.427,418.913l11.508,13.426c5.753,6.52,7.032,12.018,4.858,24.933c-2.301,12.785-9.206,19.307-24.933,19.307
		c-15.727,0-20.457-6.521-18.156-19.307l1.918-11.125c0.383-2.301,1.919-3.58,4.22-3.58h6.265c2.301,0,3.324,1.279,2.94,3.58
		l-1.918,11.125c-1.023,5.242,0.256,8.567,6.521,8.567c6.264,0,8.695-3.325,9.717-8.567c1.278-7.672,1.023-11.252-3.709-16.878
		l-11.507-13.554c-5.754-6.393-7.032-11.891-4.731-24.805c2.174-12.787,9.206-19.307,24.933-19.307
		c15.727,0,20.33,6.52,18.157,19.307l-2.047,11.124c-0.384,2.302-1.918,3.581-4.219,3.581h-6.265c-2.301,0-3.324-1.279-2.94-3.581
		l2.046-11.124c0.895-5.243-0.384-8.567-6.649-8.567c-6.265,0-8.695,3.324-9.589,8.567
		C458.441,409.835,458.824,413.287,463.427,418.913z"/>
	<path id="I" d="M424.432,472.36c-0.511,2.301-1.918,3.58-4.22,3.58h-4.986c-2.302,0-3.453-1.278-2.941-3.58l11.38-64.57
		c0.383-2.302,1.918-3.581,4.219-3.581h4.987c2.301,0,3.324,1.279,2.94,3.581L424.432,472.36z M434.533,380.555
		c4.348,0,6.777,2.942,6.01,7.288c-0.767,4.348-4.22,7.416-8.567,7.416c-4.348,0-6.905-3.068-6.138-7.416
		C426.605,383.496,430.186,380.555,434.533,380.555z"/>
</g>
</svg>
