<?xml version="1.0" encoding="utf-8"?>
<!-- Generator: Adobe Illustrator 17.0.0, SVG Export Plug-In . SVG Version: 6.00 Build 0)  -->
<!DOCTYPE svg PUBLIC "-//W3C//DTD SVG 1.1//EN" "http://www.w3.org/Graphics/SVG/1.1/DTD/svg11.dtd">
<svg version="1.1" id="Layer_1" xmlns="http://www.w3.org/2000/svg" xmlns:xlink="http://www.w3.org/1999/xlink" x="0px" y="0px"
	 width="503px" height="334px" viewBox="0 0 503 334" enable-background="new 0 0 503 334" xml:space="preserve">
<path id="shield" d="M503,334H82.229l-18.014-17.091c0,0,0.234,0.222-0.263-0.25c-0.497-0.472-0.24-0.227-0.24-0.227L0,255.981V0
	l344.963,0.052L503,153.367V334z"/>
<g id="type">
	<path id="L" fill="#FFFFFF" d="M310,59.072l61,60.154V215h72v61c0,0-93.667,0-69,0c24.667,0-64,0-64,0V59.072z"/>
	<g id="S_1_">
		<path id="s1" fill="#FFFFFF" d="M187.936,59C148.613,59,128,78.936,128,118.256c0,0.475,0,0.744,0,1.744h57.93h101.776H304V59
			C304,59,198.495,59,187.936,59z"/>
		<path id="s2" fill="#FFFFFF" d="M188.212,196c6.401,0,57.788,0,57.788,0v12h58c0-6,0-9.195,0-11.089
			C304,157.582,286.521,136,247.196,136c-8.644,0-61.196,0-61.196,0v-9h-58c0,4,0,7.311,0,10.922
			C128,177.252,148.886,196,188.212,196z"/>
		<path id="s3" fill="#FFFFFF" d="M128,215v61c0,0,89.088,0,119.196,0c39.05,0,56.804-20.105,56.804-59.334c0-0.582,0-1.666,0-1.666
			H128z"/>
	</g>
	<path id="I_1_" fill="#FFFFFF" d="M60,59h61v217.131l-61-61.015v-90.492c0,0,0,3.625,0-1.5S60,122,60,122V59z"/>
</g>
</svg>
