<?xml version="1.0" encoding="utf-8"?>
<!-- Generator: Adobe Illustrator 17.0.0, SVG Export Plug-In . SVG Version: 6.00 Build 0)  -->
<!DOCTYPE svg PUBLIC "-//W3C//DTD SVG 1.1//EN" "http://www.w3.org/Graphics/SVG/1.1/DTD/svg11.dtd">
<svg version="1.1" id="Layer_1" xmlns="http://www.w3.org/2000/svg" xmlns:xlink="http://www.w3.org/1999/xlink" x="0px" y="0px"
	 width="124px" height="283px" viewBox="0 0 124 283" enable-background="new 0 0 124 283" xml:space="preserve">
<g>
	<g>
		<path fill="#1A1A1A" d="M124,269c0,7.7-6.3,14-14,14H14c-7.7,0-14-6.3-14-14V16C0,8.3,6.3,2,14,2h96c7.7,0,14,6.3,14,14V269z"/>
	</g>
	<g>
		<path fill="#333333" d="M124,267c0,7.7-6.3,14-14,14H14c-7.7,0-14-6.3-14-14V14C0,6.3,6.3,0,14,0h96c7.7,0,14,6.3,14,14V267z"/>
	</g>
	<g display="none">
		<path display="inline" fill="#FF9D00" d="M62,14c18.196,0,33,17.047,33,38S80.196,90,62,90S29,72.953,29,52S43.804,14,62,14
			 M62,12c-19.33,0-35,17.909-35,40s15.67,40,35,40s35-17.909,35-40S81.33,12,62,12L62,12z"/>
	</g>
	<g>
		<g>
			<path fill="#CCAA00" d="M100,99c0,1.1-0.9,2-2,2H26c-1.1,0-2-0.9-2-2V27c0-1.1,0.9-2,2-2h72c1.1,0,2,0.9,2,2V99z"/>
		</g>
		<g>
			<path fill="#FFD500" d="M100,98c0,1.1-0.9,2-2,2H26c-1.1,0-2-0.9-2-2V26c0-1.1,0.9-2,2-2h72c1.1,0,2,0.9,2,2V98z"/>
		</g>
		<circle fill="#CCAA00" cx="62" cy="63.333" r="34.667"/>
		<circle fill="#FFD500" cx="62" cy="62.333" r="34.667"/>
		<path fill="#CCAA00" d="M62,17c-19.33,0-35,17.461-35,39c0,12.487,5.273,23.595,13.467,30.733V68.917h43.068v17.816
			C91.727,79.594,97,68.487,97,56C97,34.461,81.33,17,62,17z"/>
		<ellipse fill="#997F00" cx="62" cy="52" rx="35" ry="40"/>
		<circle fill="#333333" cx="62" cy="62" r="30"/>
		<path fill="#4D4D4D" d="M62,49c-13.615,0-25.105,9.073-28.771,21.5C36.895,82.927,48.385,92,62,92s25.105-9.073,28.771-21.5
			C87.105,58.073,75.615,49,62,49z"/>
		<path fill="#CCAA00" d="M83.535,86.732V84C77.75,89.601,70.225,92.999,62,92.999c-8.224,0-15.749-3.398-21.533-8.998v2.732
			c5.939,5.174,13.41,8.267,21.533,8.267C70.124,94.999,77.595,91.907,83.535,86.732z"/>
		<polygon fill="#997F00" points="40.467,83.535 40.467,85.742 41.891,84.317 41.891,82.11 		"/>
		<polygon fill="#997F00" points="83.535,83.535 83.535,85.742 82.11,84.317 82.11,82.11 		"/>
		<g>
			<path fill="#FFD500" d="M29,52c0-20.953,14.804-38,33-38s33,17.047,33,38c0,12.246-5.061,23.15-12.896,30.104l1.423,1.423
				C91.724,76.206,97,64.811,97,52c0-22.091-15.67-40-35-40S27,29.909,27,52c0,12.811,5.276,24.206,13.473,31.527l1.423-1.423
				C34.061,75.15,29,64.246,29,52z"/>
		</g>
		<path fill="#FFD500" d="M62,92.016c-7.563,0-14.532-2.88-20.102-7.698l-1.431,1.431c5.939,5.174,13.41,8.267,21.533,8.267
			c8.124,0,15.595-3.093,21.535-8.268l-1.431-1.431C76.533,89.135,69.564,92.016,62,92.016z"/>
	</g>
	<g>
		<g>
			<path fill="#CCAA00" d="M100,177c0,1.1-0.9,2-2,2H26c-1.1,0-2-0.9-2-2v-72c0-1.1,0.9-2,2-2h72c1.1,0,2,0.9,2,2V177z"/>
		</g>
		<g>
			<path fill="#FFD500" d="M100,176c0,1.1-0.9,2-2,2H26c-1.1,0-2-0.9-2-2v-72c0-1.1,0.9-2,2-2h72c1.1,0,2,0.9,2,2V176z"/>
		</g>
		<circle fill="#CCAA00" cx="62" cy="141.333" r="34.667"/>
		<circle fill="#FFD500" cx="62" cy="140.333" r="34.667"/>
		<path fill="#CCAA00" d="M62,95c-19.33,0-35,17.461-35,39c0,12.487,5.273,23.595,13.467,30.733v-17.817h43.068v17.816
			C91.727,157.594,97,146.487,97,134C97,112.461,81.33,95,62,95z"/>
		<ellipse fill="#997F00" cx="62" cy="130" rx="35" ry="40"/>
		<circle fill="#333333" cx="62" cy="140" r="30"/>
		<path fill="#4D4D4D" d="M62,127c-13.615,0-25.105,9.073-28.771,21.5C36.895,160.927,48.385,170,62,170s25.105-9.073,28.771-21.5
			C87.105,136.073,75.615,127,62,127z"/>
		<path fill="#CCAA00" d="M83.535,164.732V162c-5.785,5.601-13.31,8.999-21.535,8.999c-8.224,0-15.749-3.398-21.533-8.998v2.732
			c5.939,5.174,13.41,8.267,21.533,8.267C70.124,172.999,77.595,169.907,83.535,164.732z"/>
		<polygon fill="#997F00" points="40.467,161.535 40.467,163.742 41.891,162.317 41.891,160.11 		"/>
		<polygon fill="#997F00" points="83.535,161.535 83.535,163.742 82.11,162.317 82.11,160.11 		"/>
		<g>
			<path fill="#FFD500" d="M29,130c0-20.953,14.804-38,33-38s33,17.047,33,38c0,12.246-5.061,23.15-12.896,30.104l1.423,1.423
				C91.724,154.206,97,142.811,97,130c0-22.091-15.67-40-35-40s-35,17.909-35,40c0,12.811,5.276,24.206,13.473,31.527l1.423-1.423
				C34.061,153.15,29,142.246,29,130z"/>
		</g>
		<path fill="#FFD500" d="M62,170.016c-7.563,0-14.532-2.88-20.102-7.698l-1.431,1.431c5.939,5.174,13.41,8.267,21.533,8.267
			c8.124,0,15.595-3.093,21.535-8.268l-1.431-1.431C76.533,167.135,69.564,170.016,62,170.016z"/>
	</g>
	<g>
		<g>
			<path fill="#CCAA00" d="M100,255c0,1.1-0.9,2-2,2H26c-1.1,0-2-0.9-2-2v-72c0-1.1,0.9-2,2-2h72c1.1,0,2,0.9,2,2V255z"/>
		</g>
		<g>
			<path fill="#FFD500" d="M100,254c0,1.1-0.9,2-2,2H26c-1.1,0-2-0.9-2-2v-72c0-1.1,0.9-2,2-2h72c1.1,0,2,0.9,2,2V254z"/>
		</g>
		<circle fill="#CCAA00" cx="62" cy="219.333" r="34.667"/>
		<circle fill="#FFD500" cx="62" cy="218.333" r="34.667"/>
		<path fill="#CCAA00" d="M62,173c-19.33,0-35,17.461-35,39c0,12.487,5.273,23.595,13.467,30.733v-17.817h43.068v17.816
			C91.727,235.594,97,224.487,97,212C97,190.461,81.33,173,62,173z"/>
		<ellipse fill="#997F00" cx="62" cy="208" rx="35" ry="40"/>
		<circle fill="#333333" cx="62" cy="218" r="30"/>
		<path fill="#4D4D4D" d="M62,205c-13.615,0-25.105,9.073-28.771,21.5C36.895,238.927,48.385,248,62,248s25.105-9.073,28.771-21.5
			C87.105,214.073,75.615,205,62,205z"/>
		<path fill="#CCAA00" d="M83.535,242.732V240c-5.785,5.601-13.31,8.999-21.535,8.999c-8.224,0-15.749-3.398-21.533-8.998v2.732
			c5.939,5.174,13.41,8.267,21.533,8.267C70.124,250.999,77.595,247.907,83.535,242.732z"/>
		<polygon fill="#997F00" points="40.467,239.535 40.467,241.742 41.891,240.317 41.891,238.11 		"/>
		<polygon fill="#997F00" points="83.535,239.535 83.535,241.742 82.11,240.317 82.11,238.11 		"/>
		<g>
			<path fill="#FFD500" d="M29,208c0-20.953,14.804-38,33-38s33,17.047,33,38c0,12.246-5.061,23.15-12.896,30.104l1.423,1.423
				C91.724,232.206,97,220.811,97,208c0-22.091-15.67-40-35-40s-35,17.909-35,40c0,12.811,5.276,24.206,13.473,31.527l1.423-1.423
				C34.061,231.15,29,220.246,29,208z"/>
		</g>
		<path fill="#FFD500" d="M62,248.016c-7.563,0-14.532-2.88-20.102-7.698l-1.431,1.431c5.939,5.174,13.41,8.267,21.533,8.267
			c8.124,0,15.595-3.093,21.535-8.268l-1.431-1.431C76.533,245.135,69.564,248.016,62,248.016z"/>
	</g>
</g>
</svg>
