<?xml version="1.0" encoding="utf-8"?>
<!-- Generator: Adobe Illustrator 17.0.0, SVG Export Plug-In . SVG Version: 6.00 Build 0)  -->
<!DOCTYPE svg PUBLIC "-//W3C//DTD SVG 1.1//EN" "http://www.w3.org/Graphics/SVG/1.1/DTD/svg11.dtd">
<svg version="1.1" id="Layer_1" xmlns="http://www.w3.org/2000/svg" xmlns:xlink="http://www.w3.org/1999/xlink" x="0px" y="0px"
	 width="162.333px" height="324.625px" viewBox="0 0 162.333 324.625" enable-background="new 0 0 162.333 324.625"
	 xml:space="preserve">
<g>
	<path fill="none" stroke="#333333" stroke-width="2" stroke-miterlimit="10" d="M46.62,7.812c0,0,24.713,4.812,34.213,31.812"/>
	<path fill="none" stroke="#333333" stroke-width="2" stroke-miterlimit="10" d="M111.55,7.812c0,0-16.217-3.188-28.217,36.812"/>
	<line fill="none" stroke="#333333" stroke-width="2" stroke-miterlimit="10" x1="0" y1="6.812" x2="162.333" y2="6.812"/>
	<g>
		<path fill="#1A1A1A" d="M143.333,310.625c0,7.7-6.3,14-14,14h-96c-7.7,0-14-6.3-14-14v-253c0-7.7,6.3-14,14-14h96
			c7.7,0,14,6.3,14,14V310.625z"/>
	</g>
	<g>
		<path fill="#333333" d="M143.333,308.625c0,7.7-6.3,14-14,14h-96c-7.7,0-14-6.3-14-14v-253c0-7.7,6.3-14,14-14h96
			c7.7,0,14,6.3,14,14V308.625z"/>
	</g>
	<g display="none">
		<path display="inline" fill="#FF9D00" d="M81.333,55.625c18.196,0,33,17.047,33,38s-14.804,38-33,38s-33-17.047-33-38
			S63.137,55.625,81.333,55.625 M81.333,53.625c-19.33,0-35,17.909-35,40s15.67,40,35,40s35-17.909,35-40
			S100.663,53.625,81.333,53.625L81.333,53.625z"/>
	</g>
	<g>
		<g>
			<path fill="#CCAA00" d="M119.333,140.625c0,1.1-0.9,2-2,2h-72c-1.1,0-2-0.9-2-2v-72c0-1.1,0.9-2,2-2h72c1.1,0,2,0.9,2,2V140.625z
				"/>
		</g>
		<g>
			<path fill="#FFD500" d="M119.333,139.625c0,1.1-0.9,2-2,2h-72c-1.1,0-2-0.9-2-2v-72c0-1.1,0.9-2,2-2h72c1.1,0,2,0.9,2,2V139.625z
				"/>
		</g>
		<circle fill="#CCAA00" cx="81.333" cy="104.958" r="34.667"/>
		<circle fill="#FFD500" cx="81.333" cy="103.958" r="34.667"/>
		<path fill="#CCAA00" d="M81.333,58.625c-19.33,0-35,17.461-35,39c0,12.487,5.273,23.595,13.467,30.733v-17.817h43.068v17.816
			c8.193-7.138,13.465-18.246,13.465-30.732C116.333,76.086,100.663,58.625,81.333,58.625z"/>
		<ellipse fill="#997F00" cx="81.333" cy="93.625" rx="35" ry="40"/>
		<circle fill="#333333" cx="81.333" cy="103.625" r="30"/>
		<path fill="#4D4D4D" d="M81.333,90.625c-13.615,0-25.105,9.073-28.771,21.5c3.666,12.427,15.156,21.5,28.771,21.5
			s25.105-9.073,28.771-21.5C106.438,99.698,94.948,90.625,81.333,90.625z"/>
		<path fill="#CCAA00" d="M102.868,128.357v-2.732c-5.785,5.601-13.31,8.999-21.535,8.999c-8.224,0-15.749-3.398-21.533-8.998v2.732
			c5.939,5.174,13.41,8.267,21.533,8.267C89.457,136.624,96.928,133.532,102.868,128.357z"/>
		<polygon fill="#997F00" points="59.8,125.16 59.8,127.367 61.225,125.942 61.225,123.735 		"/>
		<polygon fill="#997F00" points="102.868,125.16 102.868,127.367 101.443,125.942 101.443,123.735 		"/>
		<g>
			<path fill="#FFD500" d="M48.333,93.625c0-20.953,14.804-38,33-38s33,17.047,33,38c0,12.246-5.061,23.15-12.896,30.104
				l1.423,1.423c8.197-7.321,13.473-18.716,13.473-31.527c0-22.091-15.67-40-35-40s-35,17.909-35,40
				c0,12.811,5.276,24.206,13.473,31.527l1.423-1.423C53.395,116.775,48.333,105.871,48.333,93.625z"/>
		</g>
		<path fill="#FFD500" d="M81.333,133.641c-7.563,0-14.532-2.88-20.102-7.698l-1.431,1.431c5.939,5.174,13.41,8.267,21.533,8.267
			c8.124,0,15.595-3.093,21.535-8.268l-1.431-1.431C95.866,130.76,88.897,133.641,81.333,133.641z"/>
	</g>
	<g>
		<g>
			<path fill="#CCAA00" d="M119.333,218.625c0,1.1-0.9,2-2,2h-72c-1.1,0-2-0.9-2-2v-72c0-1.1,0.9-2,2-2h72c1.1,0,2,0.9,2,2V218.625z
				"/>
		</g>
		<g>
			<path fill="#FFD500" d="M119.333,217.625c0,1.1-0.9,2-2,2h-72c-1.1,0-2-0.9-2-2v-72c0-1.1,0.9-2,2-2h72c1.1,0,2,0.9,2,2V217.625z
				"/>
		</g>
		<circle fill="#CCAA00" cx="81.333" cy="182.958" r="34.667"/>
		<circle fill="#FFD500" cx="81.333" cy="181.958" r="34.667"/>
		<path fill="#CCAA00" d="M81.333,136.625c-19.33,0-35,17.461-35,39c0,12.487,5.273,23.595,13.467,30.733v-17.817h43.068v17.816
			c8.193-7.138,13.465-18.246,13.465-30.732C116.333,154.086,100.663,136.625,81.333,136.625z"/>
		<ellipse fill="#997F00" cx="81.333" cy="171.625" rx="35" ry="40"/>
		<circle fill="#333333" cx="81.333" cy="181.625" r="30"/>
		<path fill="#4D4D4D" d="M81.333,168.625c-13.615,0-25.105,9.073-28.771,21.5c3.666,12.427,15.156,21.5,28.771,21.5
			s25.105-9.073,28.771-21.5C106.438,177.698,94.948,168.625,81.333,168.625z"/>
		<path fill="#CCAA00" d="M102.868,206.357v-2.732c-5.785,5.601-13.31,8.999-21.535,8.999c-8.224,0-15.749-3.398-21.533-8.998v2.732
			c5.939,5.174,13.41,8.267,21.533,8.267C89.457,214.624,96.928,211.532,102.868,206.357z"/>
		<polygon fill="#997F00" points="59.8,203.16 59.8,205.367 61.225,203.942 61.225,201.735 		"/>
		<polygon fill="#997F00" points="102.868,203.16 102.868,205.367 101.443,203.942 101.443,201.735 		"/>
		<g>
			<path fill="#FFD500" d="M48.333,171.625c0-20.953,14.804-38,33-38s33,17.047,33,38c0,12.246-5.061,23.15-12.896,30.104
				l1.423,1.423c8.197-7.321,13.473-18.716,13.473-31.527c0-22.091-15.67-40-35-40s-35,17.909-35,40
				c0,12.811,5.276,24.206,13.473,31.527l1.423-1.423C53.395,194.775,48.333,183.871,48.333,171.625z"/>
		</g>
		<path fill="#FFD500" d="M81.333,211.641c-7.563,0-14.532-2.88-20.102-7.698l-1.431,1.431c5.939,5.174,13.41,8.267,21.533,8.267
			c8.124,0,15.595-3.093,21.535-8.268l-1.431-1.431C95.866,208.76,88.897,211.641,81.333,211.641z"/>
	</g>
	<g>
		<g>
			<path fill="#CCAA00" d="M119.333,296.625c0,1.1-0.9,2-2,2h-72c-1.1,0-2-0.9-2-2v-72c0-1.1,0.9-2,2-2h72c1.1,0,2,0.9,2,2V296.625z
				"/>
		</g>
		<g>
			<path fill="#FFD500" d="M119.333,295.625c0,1.1-0.9,2-2,2h-72c-1.1,0-2-0.9-2-2v-72c0-1.1,0.9-2,2-2h72c1.1,0,2,0.9,2,2V295.625z
				"/>
		</g>
		<circle fill="#CCAA00" cx="81.333" cy="260.958" r="34.667"/>
		<circle fill="#FFD500" cx="81.333" cy="259.958" r="34.667"/>
		<path fill="#CCAA00" d="M81.333,214.625c-19.33,0-35,17.461-35,39c0,12.487,5.273,23.595,13.467,30.733v-17.817h43.068v17.816
			c8.193-7.138,13.465-18.246,13.465-30.732C116.333,232.086,100.663,214.625,81.333,214.625z"/>
		<ellipse fill="#997F00" cx="81.333" cy="249.625" rx="35" ry="40"/>
		<circle fill="#333333" cx="81.333" cy="259.625" r="30"/>
		<path fill="#4D4D4D" d="M81.333,246.625c-13.615,0-25.105,9.073-28.771,21.5c3.666,12.427,15.156,21.5,28.771,21.5
			s25.105-9.073,28.771-21.5C106.438,255.698,94.948,246.625,81.333,246.625z"/>
		<path fill="#CCAA00" d="M102.868,284.357v-2.732c-5.785,5.601-13.31,8.999-21.535,8.999c-8.224,0-15.749-3.398-21.533-8.998v2.732
			c5.939,5.174,13.41,8.267,21.533,8.267C89.457,292.624,96.928,289.532,102.868,284.357z"/>
		<polygon fill="#997F00" points="59.8,281.16 59.8,283.367 61.225,281.942 61.225,279.735 		"/>
		<polygon fill="#997F00" points="102.868,281.16 102.868,283.367 101.443,281.942 101.443,279.735 		"/>
		<g>
			<path fill="#FFD500" d="M48.333,249.625c0-20.953,14.804-38,33-38s33,17.047,33,38c0,12.246-5.061,23.15-12.896,30.104
				l1.423,1.423c8.197-7.321,13.473-18.716,13.473-31.527c0-22.091-15.67-40-35-40s-35,17.909-35,40
				c0,12.811,5.276,24.206,13.473,31.527l1.423-1.423C53.395,272.775,48.333,261.871,48.333,249.625z"/>
		</g>
		<path fill="#FFD500" d="M81.333,289.641c-7.563,0-14.532-2.88-20.102-7.698l-1.431,1.431c5.939,5.174,13.41,8.267,21.533,8.267
			c8.124,0,15.595-3.093,21.535-8.268l-1.431-1.431C95.866,286.76,88.897,289.641,81.333,289.641z"/>
	</g>
	<g>
		<polygon fill="#FFD500" points="85.333,29.625 82.333,29.625 82.333,41.625 86.333,41.625 		"/>
		<polygon fill="#FFD500" points="76.333,29.625 79.333,29.625 79.333,41.625 75.333,41.625 		"/>
		<rect x="77.333" y="23.625" fill="#9A9997" width="7" height="6"/>
		<rect x="86.333" y="2.625" fill="#9A9997" width="5" height="3"/>
		<rect x="87.333" y="0.625" fill="#9A9997" width="3" height="2"/>
		<path fill="#CCAA00" d="M91.333,5.625h-21h-5c0,3.314,2.239,6,5,6h21c2.761,0,5-2.686,5-6H91.333z"/>
		<rect x="76.333" y="10.625" fill="#FFD500" width="9" height="10"/>
		<ellipse fill="#CCAA00" cx="80.833" cy="20.625" rx="4.5" ry="5"/>
		<circle fill="#FFD500" cx="80.833" cy="20.125" r="4.5"/>
		<circle fill="#9A9997" cx="80.833" cy="20.125" r="3.5"/>
		<rect x="70.333" y="5.625" fill="#FFD500" width="21" height="5"/>
		<path fill="#FFD500" d="M91.333,10.625c2.761,0,5-2.239,5-5h-5V10.625z"/>
		<path fill="#FFD500" d="M70.333,10.625c-2.761,0-5-2.239-5-5h5V10.625z"/>
		<path fill="#FFD500" d="M95.333,4.625c-0.552,0-1,0.448-1,1h2C96.333,5.073,95.886,4.625,95.333,4.625z"/>
		<path fill="#FFD500" d="M66.333,4.625c-0.552,0-1,0.448-1,1h2C67.333,5.073,66.886,4.625,66.333,4.625z"/>
		<ellipse fill="#9A9997" cx="88.833" cy="0.625" rx="1.5" ry="0.625"/>
		<ellipse fill="#9A9997" cx="88.833" cy="2.625" rx="2.5" ry="0.625"/>
		<rect x="70.333" y="2.625" fill="#9A9997" width="5" height="3"/>
		<rect x="71.333" y="0.625" fill="#9A9997" width="3" height="2"/>
		<ellipse fill="#9A9997" cx="72.833" cy="0.625" rx="1.5" ry="0.625"/>
		<ellipse fill="#9A9997" cx="72.833" cy="2.625" rx="2.5" ry="0.625"/>
		<rect x="79.333" y="31.625" fill="#CCAA00" width="3" height="0.5"/>
		<rect x="79.333" y="29.625" fill="#FFD500" width="3" height="2"/>
		<rect x="79.333" y="37.625" fill="#FFD500" width="3" height="4"/>
	</g>
	<circle fill="none" stroke="#333333" stroke-width="2" stroke-miterlimit="10" cx="46.62" cy="22.75" r="14.938"/>
	<circle fill="none" stroke="#333333" stroke-width="2" stroke-miterlimit="10" cx="111.396" cy="22.75" r="14.938"/>
	<circle fill="none" stroke="#333333" stroke-width="2" stroke-miterlimit="10" cx="109.896" cy="21.25" r="13.438"/>
	<rect x="107.333" y="5.625" fill="#9A9997" width="6" height="4"/>
</g>
</svg>
