<?xml version="1.0" encoding="utf-8"?>
<!-- Generator: Adobe Illustrator 17.0.0, SVG Export Plug-In . SVG Version: 6.00 Build 0)  -->
<!DOCTYPE svg PUBLIC "-//W3C//DTD SVG 1.1//EN" "http://www.w3.org/Graphics/SVG/1.1/DTD/svg11.dtd">
<svg version="1.1" id="Layer_1" xmlns="http://www.w3.org/2000/svg" xmlns:xlink="http://www.w3.org/1999/xlink" x="0px" y="0px"
	 width="589.5px" height="590px" viewBox="0 0 589.5 590" enable-background="new 0 0 589.5 590" xml:space="preserve">
<g id="performers" display="none">
	<path display="inline" fill="none" stroke="#1ED6B3" stroke-width="9" stroke-linecap="round" stroke-miterlimit="10" d="M295,245
		c18.506,0,34.664,10.054,43.31,24.998"/>
	<path display="inline" fill="none" stroke="#1ED6B3" stroke-width="9" stroke-linecap="round" stroke-miterlimit="10" d="M295,235
		c26.115,0,48.333,16.684,56.577,39.975"/>
	<path display="inline" fill="none" stroke="#1ED6B3" stroke-width="9" stroke-linecap="round" stroke-miterlimit="10" d="M295,225
		c34.514,0,63.194,24.979,68.948,57.845"/>
	<path display="inline" fill="none" stroke="#1ED6B3" stroke-width="9" stroke-linecap="round" stroke-miterlimit="10" d="M295,215
		c44.183,0,80,35.817,80,80c0,14.574-3.897,28.238-10.707,40.007"/>
	<path display="inline" fill="none" stroke="#1ED6B3" stroke-width="9" stroke-linecap="round" stroke-miterlimit="10" d="M295,205
		c49.706,0,90,40.294,90,90c0,27.677-12.493,52.436-32.148,68.946"/>
	<path display="inline" fill="none" stroke="#1ED6B3" stroke-width="9" stroke-linecap="round" stroke-miterlimit="10" d="M295,195
		c55.228,0,100,44.772,100,100c0,43.212-27.408,80.022-65.788,93.995"/>
	<path display="inline" fill="none" stroke="#D39720" stroke-width="9" stroke-linecap="round" stroke-miterlimit="10" d="M295,185
		c60.751,0,110,49.249,110,110s-49.249,110-110,110c-13.219,0-25.893-2.332-37.634-6.606"/>
	<path display="inline" fill="none" stroke="#D39720" stroke-width="9" stroke-linecap="round" stroke-miterlimit="10" d="M295,175
		c66.274,0,120,53.726,120,120s-53.726,120-120,120c-21.862,0-42.358-5.846-60.01-16.06"/>
	<path display="inline" fill="none" stroke="#D39720" stroke-width="9" stroke-linecap="round" stroke-miterlimit="10" d="M295,165
		c71.797,0,130,58.203,130,130s-58.203,130-130,130c-31.819,0-60.968-11.431-83.564-30.411"/>
	<path display="inline" fill="none" stroke="#D39720" stroke-width="9" stroke-linecap="round" stroke-miterlimit="10" d="M295,155
		c77.32,0,140,62.68,140,140s-62.68,140-140,140"/>
	<path display="inline" fill="none" stroke="#D39720" stroke-width="9" stroke-linecap="round" stroke-miterlimit="10" d="M295,145
		c82.843,0,150,67.157,150,150s-67.157,150-150,150c-73.959,0-135.416-53.526-147.747-123.953"/>
	<path display="inline" fill="none" stroke="#D39720" stroke-width="9" stroke-linecap="round" stroke-miterlimit="10" d="M295,135
		c88.366,0,160,71.634,160,160s-71.634,160-160,160s-160-71.634-160-160"/>
	<path display="inline" fill="none" stroke="#D39720" stroke-width="9" stroke-linecap="round" stroke-miterlimit="10" d="M295,125
		c93.888,0,170,76.112,170,170s-76.112,170-170,170s-170-76.112-170-170c0-62.918,34.181-117.853,84.986-147.249"/>
	<path display="inline" fill="none" stroke="#D39720" stroke-width="9" stroke-linecap="round" stroke-miterlimit="10" d="M295,115
		c99.411,0,180,80.589,180,180s-80.589,180-180,180s-180-80.589-180-180c0-88.749,64.228-162.496,148.738-177.295"/>
	<path display="inline" fill="none" stroke="#1C84D2" stroke-width="9" stroke-linecap="round" stroke-miterlimit="10" d="M295,105
		c104.934,0,190,85.066,190,190c0,70.32-38.202,131.718-94.984,164.572"/>
	<path display="inline" fill="none" stroke="#1C84D2" stroke-width="9" stroke-linecap="round" stroke-miterlimit="10" d="M295,95
		c110.457,0,200,89.543,200,200c0,86.424-54.817,160.045-131.578,187.99"/>
	<path display="inline" fill="none" stroke="#1C84D2" stroke-width="9" stroke-linecap="round" stroke-miterlimit="10" d="M295,85
		c115.98,0,210,94.02,210,210c0,103.641-75.079,189.746-173.816,206.894"/>
	<path display="inline" fill="none" stroke="#1C84D2" stroke-width="9" stroke-linecap="round" stroke-miterlimit="10" d="M295,75
		c121.503,0,220,98.497,220,220s-98.497,220-220,220c-67.656,0-128.178-30.539-168.535-78.585"/>
	<path display="inline" fill="none" stroke="#1C84D2" stroke-width="9" stroke-linecap="round" stroke-miterlimit="10" d="M295,65
		c127.025,0,230,102.975,230,230S422.026,525,295,525c-85.124,0-159.448-46.244-199.219-114.98"/>
	<path display="inline" fill="none" stroke="#1C84D2" stroke-width="9" stroke-linecap="round" stroke-miterlimit="10" d="M295,55
		c132.548,0,240,107.452,240,240S427.548,535,295,535c-103.707,0-192.051-65.778-225.586-157.889"/>
	<path display="inline" fill="none" stroke="#1C84D2" stroke-width="9" stroke-linecap="round" stroke-miterlimit="10" d="M295,45
		c138.071,0,250,111.929,250,250c0,108.03-68.521,200.056-164.472,234.987"/>
	<path display="inline" fill="none" stroke="#1C84D2" stroke-width="9" stroke-linecap="round" stroke-miterlimit="10" d="M295,35
		c143.594,0,260,116.406,260,260c0,128.838-93.711,235.789-216.69,256.409C324.225,553.771,309.756,555,295,555"/>
	<path display="inline" fill="none" stroke="#1C84D2" stroke-width="9" stroke-linecap="round" stroke-miterlimit="10" d="M295,25
		c149.117,0,270,120.883,270,270S444.117,565,295,565"/>
	<path display="inline" fill="none" stroke="#1C84D2" stroke-width="9" stroke-linecap="round" stroke-miterlimit="10" d="M295,15
		c154.64,0,280,125.36,280,280S449.64,575,295,575c-16.586,0-32.835-1.442-48.628-4.208"/>
	<path display="inline" fill="none" stroke="#1C84D2" stroke-width="9" stroke-linecap="round" stroke-miterlimit="10" d="M295,5
		c160.163,0,290,129.837,290,290S455.163,585,295,585c-34.847,0-68.259-6.146-99.211-17.414"/>
</g>
<g id="tones">
	<path fill="none" stroke="#1ED6B3" stroke-miterlimit="10" d="M364.292,335.006"/>
	<g>
		<path fill="#032028" d="M295.001,249c-2.206,0-4-1.794-4-4s1.794-4,4-4s4,1.794,4,4S297.206,249,295.001,249z"/>
		<path fill="#1ED6B3" d="M295.001,241.5c1.93,0,3.5,1.57,3.5,3.5s-1.57,3.5-3.5,3.5s-3.5-1.57-3.5-3.5S293.071,241.5,295.001,241.5
			 M295.001,240.5c-2.485,0-4.5,2.015-4.5,4.5s2.015,4.5,4.5,4.5s4.5-2.015,4.5-4.5S297.486,240.5,295.001,240.5L295.001,240.5z"/>
	</g>
	<g>
		<path fill="#032028" d="M295.001,239c-2.206,0-4-1.794-4-4s1.794-4,4-4s4,1.794,4,4S297.206,239,295.001,239z"/>
		<path fill="#1ED6B3" d="M295.001,231.5c1.93,0,3.5,1.57,3.5,3.5s-1.57,3.5-3.5,3.5s-3.5-1.57-3.5-3.5S293.071,231.5,295.001,231.5
			 M295.001,230.5c-2.485,0-4.5,2.015-4.5,4.5s2.015,4.5,4.5,4.5s4.5-2.015,4.5-4.5S297.486,230.5,295.001,230.5L295.001,230.5z"/>
	</g>
	<g>
		<path fill="#032028" d="M295.001,229c-2.206,0-4-1.794-4-4s1.794-4,4-4s4,1.794,4,4S297.206,229,295.001,229z"/>
		<path fill="#1ED6B3" d="M295.001,221.5c1.93,0,3.5,1.57,3.5,3.5s-1.57,3.5-3.5,3.5s-3.5-1.57-3.5-3.5S293.071,221.5,295.001,221.5
			 M295.001,220.5c-2.485,0-4.5,2.015-4.5,4.5s2.015,4.5,4.5,4.5s4.5-2.015,4.5-4.5S297.486,220.5,295.001,220.5L295.001,220.5z"/>
	</g>
	<g>
		<path fill="#032028" d="M330.355,263.645c-1.068,0-2.073-0.416-2.828-1.171c-0.756-0.755-1.172-1.76-1.172-2.829
			s0.416-2.073,1.172-2.829c0.755-0.755,1.76-1.171,2.828-1.171s2.073,0.416,2.829,1.171c1.56,1.56,1.56,4.098,0,5.657
			C332.429,263.229,331.424,263.645,330.355,263.645z"/>
		<path fill="#1ED6B3" d="M330.356,256.145c0.935,0,1.814,0.364,2.475,1.025c0.661,0.661,1.025,1.54,1.025,2.475
			s-0.364,1.814-1.025,2.475c-0.661,0.661-1.54,1.025-2.475,1.025s-1.814-0.364-2.475-1.025c-0.661-0.661-1.025-1.54-1.025-2.475
			s0.364-1.814,1.025-2.475C328.542,256.509,329.421,256.145,330.356,256.145 M330.356,255.145c-1.152,0-2.303,0.439-3.182,1.318
			c-1.757,1.757-1.757,4.607,0,6.364c0.879,0.879,2.03,1.318,3.182,1.318s2.303-0.439,3.182-1.318c1.757-1.757,1.757-4.607,0-6.364
			C332.659,255.584,331.507,255.145,330.356,255.145L330.356,255.145z"/>
	</g>
	<g>
		<path fill="#032028" d="M337.427,256.574c-1.068,0-2.073-0.416-2.828-1.171c-0.756-0.755-1.172-1.76-1.172-2.828
			c0-1.069,0.416-2.073,1.172-2.829c0.755-0.755,1.76-1.171,2.828-1.171s2.073,0.416,2.828,1.171
			c0.756,0.755,1.172,1.76,1.172,2.829c0,1.068-0.416,2.073-1.172,2.828C339.5,256.158,338.495,256.574,337.427,256.574z"/>
		<path fill="#1ED6B3" d="M337.427,249.074c0.935,0,1.814,0.364,2.475,1.025c0.661,0.661,1.025,1.54,1.025,2.475
			s-0.364,1.814-1.025,2.475c-0.661,0.661-1.54,1.025-2.475,1.025s-1.814-0.364-2.475-1.025c-1.365-1.365-1.365-3.585,0-4.95
			C335.613,249.438,336.492,249.074,337.427,249.074 M337.427,248.074c-1.152,0-2.303,0.439-3.182,1.318
			c-1.757,1.757-1.757,4.607,0,6.364c0.879,0.879,2.03,1.318,3.182,1.318s2.303-0.439,3.182-1.318c1.757-1.757,1.757-4.607,0-6.364
			C339.73,248.513,338.578,248.074,337.427,248.074L337.427,248.074z"/>
	</g>
	<g>
		<path fill="#032028" d="M344.498,249.503c-1.068,0-2.073-0.416-2.829-1.171c-1.56-1.56-1.56-4.098,0-5.657
			c0.756-0.755,1.761-1.171,2.829-1.171s2.073,0.416,2.828,1.171c0.756,0.755,1.172,1.76,1.172,2.829s-0.416,2.073-1.172,2.829
			C346.571,249.087,345.566,249.503,344.498,249.503z"/>
		<path fill="#1ED6B3" d="M344.498,242.003c0.935,0,1.814,0.364,2.475,1.025c1.365,1.365,1.365,3.585,0,4.95
			c-0.661,0.661-1.54,1.025-2.475,1.025s-1.814-0.364-2.475-1.025c-0.661-0.661-1.025-1.54-1.025-2.475s0.364-1.814,1.025-2.475
			C342.684,242.367,343.563,242.003,344.498,242.003 M344.498,241.003c-1.152,0-2.303,0.439-3.182,1.318
			c-1.757,1.757-1.757,4.607,0,6.364c0.879,0.879,2.03,1.318,3.182,1.318s2.303-0.439,3.182-1.318c1.757-1.757,1.757-4.607,0-6.364
			C346.801,241.442,345.65,241.003,344.498,241.003L344.498,241.003z"/>
	</g>
	<g>
		<path fill="#032028" d="M345,299.001c-2.206,0-4-1.795-4-4s1.794-4,4-4s4,1.794,4,4S347.206,299.001,345,299.001z"/>
		<path fill="#1ED6B3" d="M345,291.501c1.93,0,3.5,1.57,3.5,3.5s-1.57,3.5-3.5,3.5s-3.5-1.57-3.5-3.5S343.07,291.501,345,291.501
			 M345,290.501c-2.485,0-4.5,2.015-4.5,4.5s2.015,4.5,4.5,4.5s4.5-2.015,4.5-4.5S347.485,290.501,345,290.501L345,290.501z"/>
	</g>
	<g>
		<path fill="#032028" d="M355,299.001c-2.206,0-4-1.795-4-4s1.794-4,4-4s4,1.794,4,4S357.206,299.001,355,299.001z"/>
		<path fill="#1ED6B3" d="M355,291.501c1.93,0,3.5,1.57,3.5,3.5s-1.57,3.5-3.5,3.5s-3.5-1.57-3.5-3.5S353.07,291.501,355,291.501
			 M355,290.501c-2.485,0-4.5,2.015-4.5,4.5s2.015,4.5,4.5,4.5s4.5-2.015,4.5-4.5S357.485,290.501,355,290.501L355,290.501z"/>
	</g>
	<g>
		<path fill="#032028" d="M365,299.001c-2.206,0-4-1.795-4-4s1.794-4,4-4s4,1.794,4,4S367.206,299.001,365,299.001z"/>
		<path fill="#1ED6B3" d="M365,291.501c1.93,0,3.5,1.57,3.5,3.5s-1.57,3.5-3.5,3.5s-3.5-1.57-3.5-3.5S363.07,291.501,365,291.501
			 M365,290.501c-2.485,0-4.5,2.015-4.5,4.5s2.015,4.5,4.5,4.5s4.5-2.015,4.5-4.5S367.485,290.501,365,290.501L365,290.501z"/>
	</g>
	<g>
		<path fill="#032028" d="M330.355,334.355c-1.068,0-2.072-0.416-2.828-1.171c-1.56-1.561-1.56-4.098,0-5.657
			c0.756-0.756,1.761-1.172,2.828-1.172c1.068,0,2.073,0.416,2.829,1.172c1.56,1.56,1.56,4.097,0,5.657
			C332.428,333.939,331.424,334.355,330.355,334.355z"/>
		<path fill="#1ED6B3" d="M330.355,326.856c0.935,0,1.814,0.364,2.475,1.025c1.365,1.365,1.365,3.585,0,4.95
			c-0.661,0.661-1.54,1.025-2.475,1.025s-1.814-0.364-2.475-1.025c-0.661-0.661-1.025-1.54-1.025-2.475s0.364-1.814,1.025-2.475
			C328.541,327.22,329.42,326.856,330.355,326.856 M330.355,325.856c-1.152,0-2.303,0.439-3.182,1.318
			c-1.757,1.757-1.757,4.607,0,6.364c0.879,0.879,2.03,1.318,3.182,1.318s2.303-0.439,3.182-1.318c1.757-1.757,1.757-4.607,0-6.364
			C332.658,326.295,331.507,325.856,330.355,325.856L330.355,325.856z"/>
	</g>
	<g>
		<path fill="#032028" d="M337.426,341.427c-1.068,0-2.072-0.416-2.828-1.172s-1.172-1.76-1.172-2.828s0.416-2.072,1.172-2.828
			s1.76-1.172,2.828-1.172s2.073,0.416,2.829,1.172c1.56,1.56,1.56,4.097,0,5.656C339.499,341.011,338.494,341.427,337.426,341.427z
			"/>
		<path fill="#1ED6B3" d="M337.426,333.927c0.935,0,1.814,0.364,2.475,1.025c0.661,0.661,1.025,1.54,1.025,2.475
			s-0.364,1.814-1.025,2.475c-0.661,0.661-1.54,1.025-2.475,1.025s-1.814-0.364-2.475-1.025c-0.661-0.661-1.025-1.54-1.025-2.475
			s0.364-1.814,1.025-2.475C335.612,334.291,336.491,333.927,337.426,333.927 M337.426,332.927c-1.152,0-2.303,0.439-3.182,1.318
			c-1.757,1.757-1.757,4.607,0,6.364c0.879,0.879,2.03,1.318,3.182,1.318c1.152,0,2.303-0.439,3.182-1.318
			c1.757-1.757,1.757-4.607,0-6.364C339.729,333.366,338.578,332.927,337.426,332.927L337.426,332.927z"/>
	</g>
	<g>
		<path fill="#032028" d="M344.497,348.498c-1.068,0-2.072-0.416-2.828-1.172s-1.172-1.76-1.172-2.828s0.416-2.073,1.172-2.829
			c0.755-0.755,1.76-1.171,2.828-1.171s2.073,0.416,2.828,1.171c0.756,0.756,1.172,1.761,1.172,2.829s-0.416,2.072-1.172,2.828
			S345.565,348.498,344.497,348.498z"/>
		<path fill="#1ED6B3" d="M344.497,340.998c0.935,0,1.814,0.364,2.475,1.025c1.365,1.365,1.365,3.585,0,4.95
			c-0.661,0.661-1.54,1.025-2.475,1.025s-1.814-0.364-2.475-1.025c-1.365-1.365-1.365-3.585,0-4.95
			C342.683,341.362,343.562,340.998,344.497,340.998 M344.497,339.998c-1.152,0-2.303,0.439-3.182,1.318
			c-1.757,1.757-1.757,4.607,0,6.364c0.879,0.879,2.03,1.318,3.182,1.318s2.303-0.439,3.182-1.318c1.757-1.757,1.757-4.607,0-6.364
			C346.801,340.437,345.649,339.998,344.497,339.998L344.497,339.998z"/>
	</g>
	<g>
		<path fill="#032028" d="M295,349c-2.206,0-4-1.794-4-4s1.794-4,4-4s4,1.794,4,4S297.205,349,295,349z"/>
		<path fill="#1ED6B3" d="M295,341.5c1.93,0,3.5,1.57,3.5,3.5s-1.57,3.5-3.5,3.5s-3.5-1.57-3.5-3.5S293.07,341.5,295,341.5
			 M295,340.5c-2.485,0-4.5,2.015-4.5,4.5s2.015,4.5,4.5,4.5s4.5-2.015,4.5-4.5S297.485,340.5,295,340.5L295,340.5z"/>
	</g>
	<g>
		<path fill="#032028" d="M295,359c-2.206,0-4-1.794-4-4s1.794-4,4-4s4,1.794,4,4S297.205,359,295,359z"/>
		<path fill="#1ED6B3" d="M295,351.5c1.93,0,3.5,1.57,3.5,3.5s-1.57,3.5-3.5,3.5s-3.5-1.57-3.5-3.5S293.07,351.5,295,351.5
			 M295,350.5c-2.485,0-4.5,2.015-4.5,4.5s2.015,4.5,4.5,4.5s4.5-2.015,4.5-4.5S297.485,350.5,295,350.5L295,350.5z"/>
	</g>
	<g>
		<path fill="#032028" d="M295,369c-2.206,0-4-1.794-4-4s1.794-4,4-4s4,1.794,4,4S297.205,369,295,369z"/>
		<path fill="#1ED6B3" d="M295,361.5c1.93,0,3.5,1.57,3.5,3.5s-1.57,3.5-3.5,3.5s-3.5-1.57-3.5-3.5S293.07,361.5,295,361.5
			 M295,360.5c-2.485,0-4.5,2.015-4.5,4.5s2.015,4.5,4.5,4.5s4.5-2.015,4.5-4.5S297.485,360.5,295,360.5L295,360.5z"/>
	</g>
	<g>
		<path fill="#032028" d="M245,298.999c-2.206,0-4-1.794-4-4s1.794-4,4-4s4,1.794,4,4S247.206,298.999,245,298.999z"/>
		<path fill="#1ED6B3" d="M245,291.5c1.93,0,3.5,1.57,3.5,3.5s-1.57,3.5-3.5,3.5s-3.5-1.57-3.5-3.5S243.07,291.5,245,291.5
			 M245,290.5c-2.485,0-4.5,2.015-4.5,4.5s2.015,4.5,4.5,4.5s4.5-2.015,4.5-4.5S247.485,290.5,245,290.5L245,290.5z"/>
	</g>
	<g>
		<path fill="#032028" d="M235,298.999c-2.206,0-4-1.794-4-4s1.794-4,4-4s4,1.794,4,4S237.206,298.999,235,298.999z"/>
		<path fill="#1ED6B3" d="M235,291.5c1.93,0,3.5,1.57,3.5,3.5s-1.57,3.5-3.5,3.5s-3.5-1.57-3.5-3.5S233.07,291.5,235,291.5
			 M235,290.5c-2.485,0-4.5,2.015-4.5,4.5s2.015,4.5,4.5,4.5s4.5-2.015,4.5-4.5S237.485,290.5,235,290.5L235,290.5z"/>
	</g>
	<g>
		<path fill="#032028" d="M225,298.999c-2.206,0-4-1.794-4-4s1.794-4,4-4s4,1.794,4,4S227.206,298.999,225,298.999z"/>
		<path fill="#1ED6B3" d="M225,291.5c1.93,0,3.5,1.57,3.5,3.5s-1.57,3.5-3.5,3.5s-3.5-1.57-3.5-3.5S223.07,291.5,225,291.5
			 M225,290.5c-2.485,0-4.5,2.015-4.5,4.5s2.015,4.5,4.5,4.5s4.5-2.015,4.5-4.5S227.485,290.5,225,290.5L225,290.5z"/>
	</g>
	<g>
		<path fill="#032028" d="M295.001,219c-2.206,0-4-1.794-4-4s1.794-4,4-4s4,1.794,4,4S297.206,219,295.001,219z"/>
		<path fill="#1ED6B3" d="M295.001,211.5c1.93,0,3.5,1.57,3.5,3.5s-1.57,3.5-3.5,3.5s-3.5-1.57-3.5-3.5S293.071,211.5,295.001,211.5
			 M295.001,210.5c-2.485,0-4.5,2.015-4.5,4.5s2.015,4.5,4.5,4.5s4.5-2.015,4.5-4.5S297.486,210.5,295.001,210.5L295.001,210.5z"/>
	</g>
	<g>
		<path fill="#032028" d="M295.001,209c-2.206,0-4-1.794-4-4s1.794-4,4-4s4,1.794,4,4S297.206,209,295.001,209z"/>
		<path fill="#1ED6B3" d="M295.001,201.5c1.93,0,3.5,1.57,3.5,3.5s-1.57,3.5-3.5,3.5s-3.5-1.57-3.5-3.5S293.071,201.5,295.001,201.5
			 M295.001,200.5c-2.485,0-4.5,2.015-4.5,4.5s2.015,4.5,4.5,4.5s4.5-2.015,4.5-4.5S297.486,200.5,295.001,200.5L295.001,200.5z"/>
	</g>
	<g>
		<path fill="#032028" d="M295.001,199c-2.206,0-4-1.794-4-4s1.794-4,4-4s4,1.794,4,4S297.206,199,295.001,199z"/>
		<path fill="#1ED6B3" d="M295.001,191.5c1.93,0,3.5,1.57,3.5,3.5s-1.57,3.5-3.5,3.5s-3.5-1.57-3.5-3.5S293.071,191.5,295.001,191.5
			 M295.001,190.5c-2.485,0-4.5,2.015-4.5,4.5s2.015,4.5,4.5,4.5s4.5-2.015,4.5-4.5S297.486,190.5,295.001,190.5L295.001,190.5z"/>
	</g>
	<g>
		<path fill="#032028" d="M346.421,237.717c-0.937,0-1.85-0.333-2.568-0.936c-0.818-0.687-1.32-1.651-1.414-2.716
			c-0.093-1.064,0.234-2.101,0.921-2.92c0.762-0.908,1.88-1.429,3.066-1.429c0.938,0,1.85,0.332,2.569,0.936
			c1.689,1.418,1.91,3.946,0.492,5.636C348.726,237.196,347.608,237.717,346.421,237.717z"/>
		<path fill="#1ED6B3" d="M346.426,230.217L346.426,230.217c0.82,0,1.618,0.291,2.247,0.819c1.478,1.241,1.672,3.453,0.431,4.931
			c-0.667,0.795-1.645,1.25-2.684,1.25c-0.82,0-1.618-0.291-2.247-0.819c-1.478-1.241-1.672-3.453-0.431-4.931
			C344.409,230.672,345.387,230.217,346.426,230.217 M346.426,229.217c-1.284,0-2.56,0.547-3.45,1.608
			c-1.598,1.904-1.349,4.742,0.555,6.34c0.843,0.707,1.869,1.053,2.89,1.053c1.284,0,2.56-0.547,3.45-1.608
			c1.597-1.904,1.349-4.742-0.555-6.34C348.473,229.562,347.447,229.217,346.426,229.217L346.426,229.217z"/>
	</g>
	<g>
		<path fill="#032028" d="M352.849,230.056c-0.938,0-1.85-0.332-2.568-0.936c-0.818-0.687-1.32-1.651-1.414-2.716
			c-0.093-1.064,0.234-2.101,0.921-2.92c0.763-0.908,1.88-1.429,3.066-1.429c0.938,0,1.85,0.333,2.569,0.936
			c1.688,1.417,1.91,3.945,0.493,5.635C355.153,229.536,354.036,230.056,352.849,230.056z"/>
		<path fill="#1ED6B3" d="M352.854,222.556L352.854,222.556c0.82,0,1.618,0.291,2.247,0.819c1.478,1.241,1.672,3.453,0.431,4.931
			c-0.667,0.795-1.645,1.25-2.683,1.25c-0.82,0-1.618-0.291-2.247-0.819c-1.478-1.241-1.672-3.453-0.431-4.931
			C350.837,223.012,351.815,222.556,352.854,222.556 M352.854,221.556c-1.284,0-2.56,0.547-3.45,1.608
			c-1.597,1.904-1.349,4.742,0.555,6.34c0.843,0.707,1.869,1.053,2.89,1.053c1.284,0,2.56-0.547,3.45-1.608
			c1.598-1.904,1.349-4.742-0.555-6.34C354.901,221.902,353.874,221.556,352.854,221.556L352.854,221.556z"/>
	</g>
	<g>
		<path fill="#032028" d="M359.276,222.396c-0.937,0-1.85-0.333-2.568-0.936c-0.818-0.687-1.32-1.651-1.414-2.716
			c-0.093-1.064,0.234-2.101,0.921-2.92c0.763-0.908,1.88-1.429,3.066-1.429c0.938,0,1.85,0.332,2.569,0.936
			c1.689,1.418,1.91,3.946,0.493,5.636C361.581,221.875,360.464,222.396,359.276,222.396z"/>
		<path fill="#1ED6B3" d="M359.282,214.896L359.282,214.896c0.82,0,1.618,0.291,2.247,0.819c0.716,0.601,1.155,1.445,1.237,2.376
			c0.081,0.931-0.205,1.839-0.806,2.555c-0.667,0.795-1.645,1.25-2.683,1.25c-0.82,0-1.618-0.291-2.247-0.819
			c-1.478-1.241-1.672-3.453-0.431-4.931C357.265,215.352,358.243,214.896,359.282,214.896 M359.281,213.896
			c-1.284,0-2.56,0.547-3.45,1.608c-1.597,1.904-1.349,4.742,0.555,6.34c0.843,0.707,1.869,1.053,2.89,1.053
			c1.284,0,2.56-0.547,3.45-1.608c1.598-1.904,1.349-4.742-0.555-6.34C361.329,214.241,360.302,213.896,359.281,213.896
			L359.281,213.896z"/>
	</g>
	<g>
		<path fill="#032028" d="M364.286,259.001c-1.427,0-2.756-0.767-3.469-2c-1.102-1.91-0.445-4.361,1.465-5.464
			c0.608-0.351,1.298-0.537,1.996-0.537c1.427,0,2.756,0.767,3.469,2c1.102,1.91,0.445,4.361-1.465,5.464
			C365.674,258.815,364.984,259.001,364.286,259.001z"/>
		<path fill="#1ED6B3" d="M364.278,251.5L364.278,251.5c1.249,0,2.412,0.671,3.035,1.751c0.467,0.81,0.592,1.753,0.35,2.656
			c-0.242,0.903-0.821,1.658-1.631,2.125c-0.532,0.307-1.136,0.47-1.746,0.47c-1.249,0-2.412-0.671-3.035-1.751
			c-0.467-0.81-0.592-1.753-0.35-2.656c0.242-0.903,0.821-1.658,1.631-2.125C363.064,251.662,363.668,251.5,364.278,251.5
			 M364.278,250.5c-0.763,0-1.537,0.195-2.246,0.604c-2.152,1.243-2.89,3.995-1.647,6.147c0.833,1.444,2.346,2.251,3.901,2.251
			c0.763,0,1.537-0.195,2.246-0.604c2.152-1.243,2.89-3.995,1.647-6.147C367.346,251.307,365.833,250.5,364.278,250.5L364.278,250.5
			z"/>
	</g>
	<g>
		<path fill="#032028" d="M372.946,254.001c-1.427,0-2.755-0.767-3.468-2c-0.534-0.925-0.676-2.003-0.399-3.035
			c0.276-1.032,0.938-1.895,1.863-2.429c0.608-0.351,1.298-0.537,1.996-0.537c1.427,0,2.756,0.767,3.469,2
			c1.102,1.91,0.445,4.361-1.465,5.464C374.334,253.815,373.645,254.001,372.946,254.001z"/>
		<path fill="#1ED6B3" d="M372.939,246.5L372.939,246.5c1.249,0,2.412,0.671,3.035,1.751c0.467,0.81,0.592,1.753,0.35,2.656
			c-0.242,0.903-0.821,1.658-1.631,2.125c-0.532,0.307-1.136,0.47-1.746,0.47c-1.249,0-2.412-0.671-3.035-1.751
			c-0.965-1.671-0.39-3.816,1.281-4.781C371.725,246.662,372.328,246.5,372.939,246.5 M372.938,245.5
			c-0.763,0-1.537,0.195-2.246,0.604c-2.152,1.243-2.89,3.995-1.647,6.147c0.834,1.444,2.346,2.251,3.901,2.251
			c0.763,0,1.537-0.195,2.246-0.604c2.152-1.243,2.89-3.995,1.647-6.147C376.006,246.307,374.494,245.5,372.938,245.5L372.938,245.5
			z"/>
	</g>
	<g>
		<path fill="#032028" d="M381.606,249.001c-1.427,0-2.755-0.767-3.468-2c-0.534-0.925-0.676-2.003-0.399-3.035
			c0.276-1.032,0.938-1.895,1.863-2.429c0.608-0.351,1.298-0.537,1.996-0.537c1.427,0,2.756,0.767,3.469,2
			c1.102,1.91,0.445,4.361-1.465,5.464C382.994,248.815,382.305,249.001,381.606,249.001z"/>
		<path fill="#1ED6B3" d="M381.599,241.5L381.599,241.5c1.249,0,2.411,0.671,3.035,1.751c0.467,0.81,0.592,1.753,0.35,2.656
			c-0.242,0.903-0.821,1.658-1.631,2.125c-0.532,0.307-1.136,0.47-1.746,0.47c-1.249,0-2.412-0.671-3.035-1.751
			c-0.467-0.81-0.592-1.753-0.35-2.656c0.242-0.903,0.821-1.658,1.631-2.125C380.385,241.662,380.989,241.5,381.599,241.5
			 M381.599,240.5c-0.763,0-1.537,0.195-2.246,0.604c-2.152,1.243-2.89,3.995-1.647,6.147c0.833,1.444,2.346,2.251,3.901,2.251
			c0.763,0,1.537-0.195,2.246-0.604c2.152-1.243,2.89-3.995,1.647-6.147C384.666,241.307,383.154,240.5,381.599,240.5L381.599,240.5
			z"/>
	</g>
	<g>
		<path fill="#032028" d="M373.779,285.109c-1.942,0-3.597-1.391-3.934-3.306c-0.383-2.173,1.072-4.251,3.244-4.635
			c0.231-0.041,0.467-0.061,0.699-0.061c1.942,0,3.598,1.39,3.936,3.306c0.382,2.172-1.073,4.251-3.245,4.634
			C374.248,285.088,374.013,285.109,373.779,285.109z"/>
		<path fill="#1ED6B3" d="M373.79,277.608L373.79,277.608c1.698,0,3.146,1.217,3.441,2.893c0.335,1.901-0.939,3.719-2.839,4.055
			c-0.203,0.036-0.409,0.054-0.613,0.054c-1.699,0-3.146-1.217-3.442-2.893c-0.162-0.921,0.044-1.849,0.58-2.615
			c0.536-0.766,1.339-1.277,2.259-1.439C373.38,277.626,373.586,277.608,373.79,277.608 M373.79,276.608
			c-0.259,0-0.522,0.023-0.787,0.069c-2.448,0.432-4.082,2.766-3.65,5.213c0.385,2.183,2.284,3.719,4.426,3.719
			c0.259,0,0.522-0.023,0.787-0.069c2.448-0.432,4.082-2.766,3.65-5.213C377.831,278.144,375.933,276.608,373.79,276.608
			L373.79,276.608z"/>
	</g>
	<g>
		<path fill="#032028" d="M383.627,283.373c-1.941,0-3.596-1.391-3.934-3.307c-0.383-2.172,1.073-4.25,3.245-4.634
			c0.231-0.041,0.467-0.062,0.7-0.062c1.941,0,3.596,1.391,3.934,3.307c0.383,2.172-1.073,4.25-3.245,4.634
			C384.096,283.352,383.86,283.373,383.627,283.373z"/>
		<path fill="#1ED6B3" d="M383.638,275.871L383.638,275.871c1.698,0,3.146,1.217,3.441,2.893c0.162,0.921-0.044,1.849-0.58,2.615
			c-0.536,0.766-1.339,1.277-2.259,1.439c-0.203,0.036-0.409,0.054-0.613,0.054c-1.699,0-3.146-1.217-3.442-2.893
			c-0.162-0.921,0.044-1.849,0.58-2.615c0.536-0.766,1.339-1.277,2.259-1.439C383.228,275.89,383.434,275.871,383.638,275.871
			 M383.638,274.871c-0.259,0-0.522,0.023-0.787,0.069c-2.448,0.432-4.082,2.766-3.65,5.213c0.385,2.183,2.284,3.719,4.426,3.719
			c0.259,0,0.522-0.023,0.787-0.069c2.448-0.432,4.082-2.766,3.65-5.213C387.679,276.407,385.781,274.871,383.638,274.871
			L383.638,274.871z"/>
	</g>
	<g>
		<path fill="#032028" d="M393.476,281.637c-1.941,0-3.597-1.391-3.935-3.307c-0.383-2.172,1.073-4.25,3.245-4.634
			c0.231-0.041,0.467-0.062,0.7-0.062c1.941,0,3.596,1.391,3.934,3.306c0.383,2.172-1.072,4.251-3.244,4.634
			C393.944,281.616,393.709,281.637,393.476,281.637z"/>
		<path fill="#1ED6B3" d="M393.486,274.135L393.486,274.135c1.698,0,3.146,1.217,3.441,2.893c0.162,0.921-0.044,1.849-0.58,2.615
			c-0.536,0.766-1.339,1.277-2.259,1.439c-0.203,0.036-0.409,0.054-0.613,0.054c-1.699,0-3.146-1.217-3.442-2.893
			c-0.162-0.921,0.044-1.849,0.58-2.615c0.536-0.766,1.339-1.277,2.259-1.439C393.076,274.153,393.282,274.135,393.486,274.135
			 M393.486,273.135c-0.259,0-0.522,0.023-0.787,0.069c-2.448,0.432-4.082,2.766-3.65,5.213c0.385,2.183,2.284,3.719,4.426,3.719
			c0.259,0,0.522-0.023,0.787-0.069c2.448-0.432,4.082-2.766,3.65-5.213C397.528,274.671,395.629,273.135,393.486,273.135
			L393.486,273.135z"/>
	</g>
	<g>
		<path fill="#032028" d="M373.789,312.894c-0.232,0-0.468-0.021-0.699-0.062c-2.172-0.384-3.628-2.462-3.245-4.634
			c0.338-1.916,1.992-3.307,3.935-3.307c0.233,0,0.469,0.021,0.7,0.062c2.172,0.383,3.627,2.462,3.244,4.634
			C377.386,311.503,375.731,312.894,373.789,312.894z"/>
		<path fill="#1ED6B3" d="M373.78,305.392L373.78,305.392c0.204,0,0.41,0.018,0.613,0.054c1.901,0.335,3.174,2.154,2.839,4.055
			c-0.296,1.676-1.743,2.893-3.442,2.893c-0.204,0-0.41-0.018-0.613-0.054c-1.901-0.335-3.174-2.154-2.839-4.055
			C370.633,306.608,372.081,305.392,373.78,305.392 M373.779,304.392c-2.143,0-4.041,1.536-4.426,3.719
			c-0.432,2.448,1.203,4.781,3.65,5.213c0.264,0.047,0.527,0.069,0.787,0.069c2.143,0,4.041-1.536,4.426-3.719
			c0.432-2.448-1.203-4.781-3.65-5.213C374.302,304.414,374.039,304.392,373.779,304.392L373.779,304.392z"/>
	</g>
	<g>
		<path fill="#032028" d="M383.638,314.63c-0.232,0-0.468-0.021-0.699-0.062c-1.053-0.186-1.97-0.77-2.582-1.646
			c-0.613-0.875-0.849-1.937-0.663-2.988c0.338-1.916,1.992-3.307,3.934-3.307c0.233,0,0.469,0.021,0.7,0.062
			c2.172,0.384,3.628,2.462,3.245,4.634C387.234,313.239,385.58,314.63,383.638,314.63z"/>
		<path fill="#1ED6B3" d="M383.628,307.128L383.628,307.128c0.204,0,0.41,0.018,0.613,0.054c1.901,0.335,3.174,2.154,2.839,4.055
			c-0.296,1.676-1.743,2.893-3.442,2.893c-0.204,0-0.41-0.018-0.613-0.054c-1.901-0.335-3.174-2.154-2.839-4.055
			C380.481,308.345,381.929,307.128,383.628,307.128 M383.627,306.128c-2.143,0-4.041,1.536-4.426,3.719
			c-0.432,2.448,1.203,4.781,3.65,5.213c0.264,0.047,0.527,0.069,0.787,0.069c2.143,0,4.041-1.536,4.426-3.719
			c0.432-2.448-1.203-4.781-3.65-5.213C384.15,306.151,383.887,306.128,383.627,306.128L383.627,306.128z"/>
	</g>
	<g>
		<path fill="#032028" d="M393.486,316.366c-0.233,0-0.469-0.021-0.7-0.062c-2.172-0.384-3.628-2.462-3.245-4.634
			c0.338-1.916,1.992-3.307,3.935-3.307c0.232,0,0.468,0.021,0.699,0.062c1.053,0.186,1.97,0.77,2.582,1.646
			c0.613,0.875,0.849,1.937,0.663,2.988C397.082,314.976,395.428,316.366,393.486,316.366z"/>
		<path fill="#1ED6B3" d="M393.476,308.865L393.476,308.865c0.204,0,0.41,0.018,0.613,0.054c1.901,0.335,3.174,2.154,2.839,4.055
			c-0.296,1.676-1.743,2.893-3.442,2.893c-0.204,0-0.41-0.018-0.613-0.054c-1.901-0.335-3.174-2.154-2.839-4.055
			C390.329,310.081,391.777,308.865,393.476,308.865 M393.475,307.865c-2.143,0-4.041,1.536-4.426,3.719
			c-0.432,2.448,1.203,4.781,3.65,5.213c0.264,0.047,0.527,0.069,0.787,0.069c2.143,0,4.041-1.536,4.426-3.719
			c0.432-2.448-1.203-4.781-3.65-5.213C393.998,307.887,393.735,307.865,393.475,307.865L393.475,307.865z"/>
	</g>
	<g>
		<path fill="#032028" d="M364.277,339.001c-0.697,0-1.387-0.186-1.995-0.536c-0.926-0.534-1.588-1.397-1.864-2.43
			s-0.135-2.11,0.399-3.035c0.713-1.234,2.041-2.001,3.469-2.001c0.697,0,1.388,0.187,1.996,0.537
			c0.926,0.534,1.587,1.396,1.863,2.429s0.135,2.109-0.399,3.035C367.033,338.234,365.704,339.001,364.277,339.001z"/>
		<path fill="#1ED6B3" d="M364.286,331.5L364.286,331.5c0.61,0,1.213,0.162,1.745,0.47c0.81,0.467,1.389,1.222,1.631,2.125
			c0.242,0.903,0.118,1.846-0.35,2.656c-0.623,1.08-1.786,1.751-3.035,1.751c-0.61,0-1.214-0.162-1.746-0.47
			c-0.81-0.467-1.389-1.222-1.631-2.125c-0.242-0.903-0.118-1.846,0.35-2.656C361.874,332.171,363.037,331.5,364.286,331.5
			 M364.286,330.5c-1.555,0-3.068,0.807-3.901,2.251c-1.243,2.152-0.505,4.904,1.647,6.147c0.709,0.409,1.482,0.604,2.246,0.604
			c1.555,0,3.068-0.807,3.901-2.251c1.243-2.152,0.505-4.904-1.647-6.147C365.823,330.694,365.05,330.5,364.286,330.5L364.286,330.5
			z"/>
	</g>
	<g>
		<path fill="#032028" d="M372.938,344.001c-0.697,0-1.387-0.186-1.995-0.536c-1.91-1.103-2.567-3.555-1.465-5.465
			c0.713-1.234,2.041-2.001,3.469-2.001c0.697,0,1.388,0.187,1.996,0.537c0.926,0.534,1.587,1.396,1.863,2.429
			s0.135,2.109-0.399,3.035C375.693,343.234,374.364,344.001,372.938,344.001z"/>
		<path fill="#1ED6B3" d="M372.947,336.5L372.947,336.5c0.61,0,1.213,0.162,1.745,0.47c1.671,0.965,2.246,3.11,1.281,4.781
			c-0.623,1.08-1.787,1.751-3.035,1.751c-0.61,0-1.214-0.162-1.746-0.47c-1.671-0.965-2.246-3.11-1.281-4.781
			C370.534,337.171,371.698,336.5,372.947,336.5 M372.946,335.5c-1.555,0-3.068,0.807-3.901,2.251
			c-1.243,2.152-0.505,4.904,1.647,6.147c0.709,0.409,1.482,0.604,2.246,0.604c1.555,0,3.068-0.807,3.901-2.251
			c1.243-2.152,0.505-4.904-1.647-6.147C374.483,335.694,373.71,335.5,372.946,335.5L372.946,335.5z"/>
	</g>
	<g>
		<path fill="#032028" d="M381.598,349.001c-0.697,0-1.387-0.186-1.995-0.536c-1.91-1.103-2.567-3.555-1.465-5.465
			c0.713-1.234,2.042-2.001,3.469-2.001c0.697,0,1.388,0.187,1.996,0.537c0.926,0.534,1.587,1.396,1.863,2.429
			s0.135,2.109-0.399,3.035C384.354,348.234,383.024,349.001,381.598,349.001z"/>
		<path fill="#1ED6B3" d="M381.607,341.5L381.607,341.5c0.61,0,1.213,0.162,1.745,0.47c0.81,0.467,1.389,1.222,1.631,2.125
			c0.242,0.903,0.118,1.846-0.35,2.656c-0.623,1.08-1.786,1.751-3.035,1.751c-0.61,0-1.214-0.162-1.746-0.47
			c-0.81-0.467-1.389-1.222-1.631-2.125c-0.242-0.903-0.118-1.846,0.35-2.656C379.195,342.171,380.358,341.5,381.607,341.5
			 M381.607,340.5c-1.555,0-3.068,0.807-3.901,2.251c-1.243,2.152-0.505,4.904,1.647,6.147c0.709,0.409,1.482,0.604,2.246,0.604
			c1.555,0,3.068-0.807,3.901-2.251c1.243-2.152,0.505-4.904-1.647-6.147C383.144,340.694,382.37,340.5,381.607,340.5L381.607,340.5
			z"/>
	</g>
	<g>
		<path fill="#032028" d="M335.004,368.283c-1.427,0-2.756-0.767-3.469-2.001c-1.103-1.91-0.445-4.361,1.465-5.465
			c0.608-0.351,1.298-0.536,1.995-0.536c1.427,0,2.756,0.767,3.469,2.001c0.534,0.926,0.676,2.003,0.399,3.035
			s-0.938,1.895-1.863,2.43C336.392,368.098,335.702,368.283,335.004,368.283z"/>
		<path fill="#1ED6B3" d="M334.996,360.782L334.996,360.782c1.249,0,2.411,0.671,3.035,1.751c0.467,0.81,0.592,1.753,0.35,2.656
			c-0.242,0.903-0.821,1.658-1.631,2.125c-0.532,0.307-1.136,0.47-1.746,0.47c-1.249,0-2.412-0.671-3.035-1.751
			c-0.467-0.81-0.592-1.753-0.35-2.656c0.242-0.903,0.821-1.658,1.631-2.125C333.782,360.944,334.386,360.782,334.996,360.782
			 M334.995,359.782c-0.763,0-1.537,0.195-2.246,0.604c-2.152,1.243-2.89,3.995-1.647,6.147c0.833,1.444,2.346,2.251,3.901,2.251
			c0.763,0,1.537-0.195,2.246-0.604c2.152-1.243,2.89-3.995,1.647-6.147C338.063,360.589,336.551,359.781,334.995,359.782
			L334.995,359.782z"/>
	</g>
	<g>
		<path fill="#032028" d="M340.004,376.943c-1.427,0-2.756-0.767-3.469-2.001c-0.534-0.925-0.676-2.003-0.399-3.035
			s0.938-1.895,1.864-2.429c0.608-0.351,1.299-0.537,1.996-0.537c1.427,0,2.755,0.767,3.468,2.001
			c0.534,0.926,0.676,2.003,0.399,3.035s-0.938,1.895-1.863,2.43C341.392,376.758,340.702,376.943,340.004,376.943z"/>
		<path fill="#1ED6B3" d="M339.996,369.442L339.996,369.442c1.249,0,2.411,0.671,3.035,1.751c0.965,1.671,0.39,3.816-1.281,4.781
			c-0.532,0.307-1.136,0.47-1.746,0.47c-1.249,0-2.412-0.671-3.035-1.751c-0.467-0.81-0.592-1.753-0.35-2.656
			c0.242-0.903,0.821-1.658,1.631-2.125C338.782,369.604,339.386,369.442,339.996,369.442 M339.995,368.442
			c-0.763,0-1.537,0.195-2.246,0.604c-2.152,1.243-2.89,3.995-1.647,6.147c0.833,1.444,2.346,2.251,3.901,2.251
			c0.763,0,1.537-0.195,2.246-0.604c2.152-1.243,2.89-3.995,1.647-6.147C343.063,369.249,341.551,368.442,339.995,368.442
			L339.995,368.442z"/>
	</g>
	<g>
		<path fill="#032028" d="M345.004,385.604c-1.427,0-2.756-0.767-3.469-2.001c-0.534-0.925-0.676-2.003-0.399-3.035
			s0.938-1.895,1.864-2.429c0.608-0.351,1.299-0.537,1.996-0.537c1.427,0,2.755,0.767,3.468,2.001
			c0.534,0.926,0.676,2.003,0.399,3.035s-0.938,1.895-1.863,2.43C346.392,385.418,345.702,385.604,345.004,385.604z"/>
		<path fill="#1ED6B3" d="M344.996,378.102L344.996,378.102c1.249,0,2.411,0.671,3.035,1.751c0.467,0.81,0.592,1.753,0.35,2.656
			s-0.821,1.658-1.631,2.125c-0.532,0.307-1.136,0.47-1.746,0.47c-1.249,0-2.412-0.671-3.035-1.751
			c-0.467-0.81-0.592-1.753-0.35-2.656c0.242-0.903,0.821-1.658,1.631-2.125C343.782,378.264,344.386,378.102,344.996,378.102
			 M344.995,377.102c-0.763,0-1.537,0.195-2.246,0.604c-2.152,1.243-2.89,3.995-1.647,6.147c0.833,1.444,2.346,2.251,3.901,2.251
			c0.763,0,1.537-0.195,2.246-0.604c2.152-1.243,2.89-3.995,1.647-6.147C348.063,377.909,346.551,377.102,344.995,377.102
			L344.995,377.102z"/>
	</g>
	<g>
		<path fill="#032028" d="M295,379c-2.206,0-4-1.794-4-4s1.794-4,4-4s4,1.794,4,4S297.205,379,295,379z"/>
		<path fill="#1ED6B3" d="M295,371.5c1.93,0,3.5,1.57,3.5,3.5s-1.57,3.5-3.5,3.5s-3.5-1.57-3.5-3.5S293.07,371.5,295,371.5
			 M295,370.5c-2.485,0-4.5,2.015-4.5,4.5s2.015,4.5,4.5,4.5s4.5-2.015,4.5-4.5S297.485,370.5,295,370.5L295,370.5z"/>
	</g>
	<g>
		<path fill="#032028" d="M295,389c-2.206,0-4-1.794-4-4s1.794-4,4-4s4,1.794,4,4S297.205,389,295,389z"/>
		<path fill="#1ED6B3" d="M295,381.5c1.93,0,3.5,1.57,3.5,3.5s-1.57,3.5-3.5,3.5s-3.5-1.57-3.5-3.5S293.07,381.5,295,381.5
			 M295,380.5c-2.485,0-4.5,2.015-4.5,4.5s2.015,4.5,4.5,4.5s4.5-2.015,4.5-4.5S297.485,380.5,295,380.5L295,380.5z"/>
	</g>
	<g>
		<path fill="#032028" d="M295,399c-2.206,0-4-1.794-4-4s1.794-4,4-4s4,1.794,4,4S297.205,399,295,399z"/>
		<path fill="#1ED6B3" d="M295,391.5c1.93,0,3.5,1.57,3.5,3.5s-1.57,3.5-3.5,3.5s-3.5-1.57-3.5-3.5S293.07,391.5,295,391.5
			 M295,390.5c-2.485,0-4.5,2.015-4.5,4.5s2.015,4.5,4.5,4.5s4.5-2.015,4.5-4.5S297.485,390.5,295,390.5L295,390.5z"/>
	</g>
	<g>
		<path fill="#032028" d="M254.996,368.283c-0.697,0-1.388-0.187-1.996-0.537c-0.925-0.534-1.587-1.396-1.864-2.429
			s-0.134-2.109,0.4-3.035c0.712-1.234,2.042-2.001,3.468-2.001c0.698,0,1.388,0.186,1.996,0.536
			c0.925,0.534,1.587,1.396,1.864,2.429c0.276,1.032,0.134,2.11-0.4,3.036C257.751,367.517,256.422,368.283,254.996,368.283z"/>
		<path fill="#1ED6B3" d="M255.004,360.781L255.004,360.781c0.61,0,1.213,0.162,1.746,0.47c0.81,0.467,1.389,1.222,1.631,2.125
			s0.118,1.846-0.35,2.656c-0.623,1.08-1.786,1.751-3.035,1.751c-0.61,0-1.214-0.162-1.746-0.47
			c-0.81-0.467-1.389-1.222-1.631-2.125c-0.242-0.903-0.118-1.846,0.35-2.656C252.592,361.452,253.755,360.781,255.004,360.781
			 M255.004,359.781c-1.555,0-3.068,0.807-3.901,2.251c-1.243,2.152-0.505,4.904,1.647,6.147c0.709,0.409,1.482,0.604,2.246,0.604
			c1.555,0,3.068-0.807,3.901-2.251c1.243-2.152,0.505-4.904-1.647-6.147C256.541,359.976,255.767,359.781,255.004,359.781
			L255.004,359.781z"/>
	</g>
	<g>
		<path fill="#032028" d="M249.996,376.943c-0.697,0-1.388-0.187-1.996-0.537c-0.925-0.534-1.587-1.396-1.864-2.429
			s-0.134-2.109,0.4-3.035c0.712-1.234,2.042-2.001,3.468-2.001c0.698,0,1.388,0.186,1.996,0.536
			c0.925,0.534,1.587,1.396,1.864,2.429c0.276,1.032,0.134,2.11-0.4,3.036C252.751,376.177,251.422,376.943,249.996,376.943z"/>
		<path fill="#1ED6B3" d="M250.004,369.441L250.004,369.441c0.61,0,1.213,0.162,1.746,0.47c0.81,0.467,1.389,1.222,1.631,2.125
			s0.118,1.846-0.35,2.656c-0.623,1.08-1.786,1.751-3.035,1.751c-0.61,0-1.214-0.162-1.746-0.47
			c-1.671-0.965-2.246-3.11-1.281-4.781C247.592,370.112,248.755,369.441,250.004,369.441 M250.004,368.441
			c-1.555,0-3.068,0.807-3.901,2.251c-1.243,2.152-0.505,4.904,1.647,6.147c0.709,0.409,1.482,0.604,2.246,0.604
			c1.555,0,3.068-0.807,3.901-2.251c1.243-2.152,0.505-4.904-1.647-6.147C251.541,368.636,250.767,368.441,250.004,368.441
			L250.004,368.441z"/>
	</g>
	<g>
		<path fill="#032028" d="M244.996,385.604c-0.697,0-1.388-0.187-1.996-0.537c-0.925-0.534-1.587-1.396-1.864-2.429
			s-0.134-2.109,0.4-3.035c0.712-1.234,2.042-2.001,3.468-2.001c0.698,0,1.388,0.186,1.996,0.536
			c1.91,1.104,2.567,3.555,1.464,5.465C247.751,384.837,246.422,385.604,244.996,385.604z"/>
		<path fill="#1ED6B3" d="M245.004,378.102L245.004,378.102c0.61,0,1.213,0.162,1.746,0.47c0.81,0.467,1.389,1.222,1.631,2.125
			c0.242,0.903,0.118,1.846-0.35,2.656c-0.623,1.08-1.786,1.751-3.035,1.751c-0.61,0-1.214-0.162-1.746-0.47
			c-0.81-0.467-1.389-1.222-1.631-2.125s-0.118-1.846,0.35-2.656C242.592,378.772,243.755,378.102,245.004,378.102 M245.004,377.102
			c-1.555,0-3.068,0.807-3.901,2.251c-1.243,2.152-0.505,4.904,1.647,6.147c0.709,0.409,1.482,0.604,2.246,0.604
			c1.555,0,3.068-0.807,3.901-2.251c1.243-2.152,0.505-4.904-1.647-6.147C246.541,377.296,245.767,377.102,245.004,377.102
			L245.004,377.102z"/>
	</g>
	<g>
		<path fill="#032028" d="M225.722,339.001c-1.427,0-2.755-0.767-3.468-2.001c-0.534-0.926-0.676-2.004-0.4-3.036
			c0.277-1.032,0.938-1.895,1.864-2.429c0.608-0.351,1.298-0.536,1.996-0.536c1.427,0,2.756,0.767,3.468,2.001
			c0.534,0.926,0.676,2.003,0.4,3.035s-0.938,1.895-1.864,2.429C227.109,338.814,226.419,339.001,225.722,339.001z"/>
		<path fill="#1ED6B3" d="M225.714,331.499L225.714,331.499c1.249,0,2.411,0.671,3.035,1.751c0.467,0.81,0.592,1.753,0.35,2.656
			c-0.242,0.903-0.821,1.658-1.631,2.125c-0.532,0.307-1.136,0.47-1.746,0.47c-1.249,0-2.412-0.671-3.035-1.751
			c-0.467-0.81-0.592-1.753-0.35-2.656c0.242-0.903,0.821-1.658,1.631-2.125C224.5,331.661,225.104,331.499,225.714,331.499
			 M225.714,330.499c-0.763,0-1.537,0.195-2.246,0.604c-2.152,1.243-2.89,3.995-1.647,6.147c0.833,1.444,2.346,2.251,3.901,2.251
			c0.763,0,1.537-0.195,2.246-0.604c2.152-1.243,2.89-3.995,1.647-6.147C228.781,331.306,227.269,330.499,225.714,330.499
			L225.714,330.499z"/>
	</g>
	<g>
		<path fill="#032028" d="M217.061,344.001c-1.427,0-2.755-0.767-3.468-2.001c-0.534-0.926-0.676-2.003-0.399-3.035
			c0.276-1.032,0.938-1.896,1.864-2.43c0.608-0.351,1.298-0.536,1.996-0.536c1.427,0,2.756,0.767,3.468,2.001
			c0.534,0.926,0.676,2.003,0.4,3.035s-0.938,1.895-1.864,2.429C218.449,343.814,217.759,344.001,217.061,344.001z"/>
		<path fill="#1ED6B3" d="M217.054,336.499L217.054,336.499c1.249,0,2.411,0.671,3.035,1.751c0.965,1.671,0.39,3.816-1.281,4.781
			c-0.532,0.307-1.136,0.47-1.746,0.47c-1.249,0-2.412-0.671-3.035-1.751c-0.467-0.81-0.592-1.753-0.35-2.656
			c0.242-0.903,0.821-1.658,1.631-2.125C215.84,336.661,216.443,336.499,217.054,336.499 M217.053,335.499
			c-0.763,0-1.537,0.195-2.246,0.604c-2.152,1.243-2.89,3.995-1.647,6.147c0.834,1.444,2.346,2.251,3.901,2.251
			c0.763,0,1.537-0.195,2.246-0.604c2.152-1.243,2.89-3.995,1.647-6.147C220.121,336.306,218.609,335.499,217.053,335.499
			L217.053,335.499z"/>
	</g>
	<g>
		<path fill="#032028" d="M208.401,349.001c-1.427,0-2.755-0.767-3.468-2.001c-0.534-0.925-0.676-2.003-0.399-3.035
			c0.276-1.032,0.938-1.896,1.863-2.43c0.608-0.351,1.298-0.536,1.996-0.536c1.427,0,2.756,0.767,3.469,2.001
			c0.534,0.925,0.676,2.003,0.399,3.035c-0.276,1.032-0.938,1.895-1.864,2.429C209.789,348.814,209.099,349.001,208.401,349.001z"/>
		<path fill="#1ED6B3" d="M208.393,341.499L208.393,341.499c1.249,0,2.411,0.671,3.035,1.751c0.467,0.81,0.592,1.753,0.35,2.656
			c-0.242,0.903-0.821,1.658-1.631,2.125c-0.532,0.307-1.136,0.47-1.746,0.47c-1.249,0-2.412-0.671-3.035-1.751
			c-0.467-0.81-0.592-1.753-0.35-2.656c0.242-0.903,0.821-1.658,1.631-2.125C207.179,341.661,207.783,341.499,208.393,341.499
			 M208.393,340.499c-0.763,0-1.537,0.195-2.246,0.604c-2.152,1.243-2.89,3.995-1.647,6.147c0.833,1.444,2.346,2.251,3.901,2.251
			c0.763,0,1.537-0.195,2.246-0.604c2.152-1.243,2.89-3.995,1.647-6.147C211.461,341.306,209.948,340.499,208.393,340.499
			L208.393,340.499z"/>
	</g>
	<g>
		<path fill="#032028" d="M225.714,259c-0.698,0-1.388-0.186-1.996-0.537c-0.925-0.534-1.587-1.396-1.864-2.429
			c-0.276-1.032-0.134-2.11,0.4-3.035c0.712-1.234,2.042-2,3.468-2c0.698,0,1.388,0.186,1.996,0.537
			c0.925,0.534,1.587,1.396,1.864,2.429c0.276,1.032,0.134,2.11-0.4,3.035C228.47,258.233,227.141,259,225.714,259z"/>
		<path fill="#1ED6B3" d="M225.723,251.499L225.723,251.499c0.61,0,1.213,0.162,1.746,0.47c0.81,0.467,1.389,1.222,1.631,2.125
			c0.242,0.903,0.118,1.846-0.35,2.656c-0.623,1.08-1.786,1.751-3.035,1.751c-0.61,0-1.214-0.162-1.746-0.47
			c-0.81-0.467-1.389-1.222-1.631-2.125c-0.242-0.903-0.118-1.846,0.35-2.656C223.311,252.17,224.474,251.499,225.723,251.499
			 M225.722,250.499c-1.555,0-3.068,0.807-3.901,2.251c-1.243,2.152-0.505,4.904,1.647,6.147c0.709,0.409,1.482,0.604,2.246,0.604
			c1.555,0,3.068-0.807,3.901-2.251c1.243-2.152,0.505-4.904-1.647-6.147C227.259,250.693,226.486,250.499,225.722,250.499
			L225.722,250.499z"/>
	</g>
	<g>
		<path fill="#032028" d="M217.054,254c-0.698,0-1.388-0.186-1.996-0.537c-0.925-0.534-1.587-1.396-1.864-2.429
			c-0.277-1.032-0.135-2.11,0.399-3.035c0.712-1.234,2.042-2,3.468-2c0.698,0,1.388,0.186,1.996,0.537
			c0.925,0.534,1.587,1.396,1.864,2.429c0.276,1.032,0.134,2.11-0.4,3.035C219.81,253.233,218.48,254,217.054,254z"/>
		<path fill="#1ED6B3" d="M217.062,246.499L217.062,246.499c0.61,0,1.213,0.162,1.746,0.47c1.671,0.965,2.246,3.11,1.281,4.781
			c-0.624,1.08-1.787,1.751-3.035,1.751c-0.61,0-1.214-0.162-1.746-0.47c-1.671-0.965-2.246-3.11-1.281-4.781
			C214.65,247.17,215.813,246.499,217.062,246.499 M217.062,245.499c-1.555,0-3.068,0.807-3.901,2.251
			c-1.243,2.152-0.505,4.904,1.647,6.147c0.709,0.409,1.482,0.604,2.246,0.604c1.555,0,3.068-0.807,3.901-2.251
			c1.243-2.152,0.505-4.904-1.647-6.147C218.599,245.693,217.826,245.499,217.062,245.499L217.062,245.499z"/>
	</g>
	<g>
		<path fill="#032028" d="M208.394,249c-0.698,0-1.388-0.186-1.996-0.537c-1.91-1.103-2.566-3.554-1.464-5.464
			c0.712-1.234,2.042-2,3.468-2c0.697,0,1.388,0.186,1.996,0.537c0.925,0.534,1.587,1.396,1.864,2.429
			c0.277,1.032,0.135,2.11-0.399,3.035C211.149,248.233,209.82,249,208.394,249z"/>
		<path fill="#1ED6B3" d="M208.402,241.499L208.402,241.499c0.61,0,1.213,0.162,1.746,0.47c0.81,0.467,1.389,1.222,1.631,2.125
			c0.242,0.903,0.118,1.846-0.35,2.656c-0.623,1.08-1.787,1.751-3.035,1.751c-0.61,0-1.214-0.162-1.746-0.47
			c-0.81-0.467-1.389-1.222-1.631-2.125c-0.242-0.903-0.118-1.846,0.35-2.656C205.99,242.17,207.153,241.499,208.402,241.499
			 M208.402,240.499c-1.555,0-3.068,0.807-3.901,2.251c-1.243,2.152-0.505,4.904,1.647,6.147c0.709,0.409,1.482,0.604,2.246,0.604
			c1.555,0,3.068-0.807,3.901-2.251c1.243-2.152,0.505-4.904-1.647-6.147C209.939,240.693,209.165,240.499,208.402,240.499
			L208.402,240.499z"/>
	</g>
	<circle fill="#032028" stroke="#D39720" stroke-miterlimit="10" cx="295.001" cy="185" r="4.5"/>
	<circle fill="#032028" stroke="#D39720" stroke-miterlimit="10" cx="295.001" cy="175" r="4.5"/>
	<circle fill="#032028" stroke="#D39720" stroke-miterlimit="10" cx="372.782" cy="217.219" r="4.5"/>
	<circle fill="#032028" stroke="#D39720" stroke-miterlimit="10" cx="379.853" cy="210.148" r="4.5"/>
	<circle fill="#032028" stroke="#D39720" stroke-miterlimit="10" cx="405" cy="295.001" r="4.5"/>
	<circle fill="#032028" stroke="#D39720" stroke-miterlimit="10" cx="415" cy="295.001" r="4.5"/>
	<circle fill="#032028" stroke="#D39720" stroke-miterlimit="10" cx="372.781" cy="372.782" r="4.5"/>
	<circle fill="#032028" stroke="#D39720" stroke-miterlimit="10" cx="379.853" cy="379.853" r="4.5"/>
	<circle fill="#032028" stroke="#D39720" stroke-miterlimit="10" cx="295" cy="405" r="4.5"/>
	<circle fill="#032028" stroke="#D39720" stroke-miterlimit="10" cx="295" cy="415" r="4.5"/>
	<circle fill="#032028" stroke="#D39720" stroke-miterlimit="10" cx="275.898" cy="403.329" r="4.5"/>
	<circle fill="#032028" stroke="#D39720" stroke-miterlimit="10" cx="274.162" cy="413.177" r="4.5"/>
	<circle fill="#032028" stroke="#D39720" stroke-miterlimit="10" cx="257.377" cy="398.366" r="4.5"/>
	<circle fill="#032028" stroke="#D39720" stroke-miterlimit="10" cx="253.957" cy="407.763" r="4.5"/>
	<circle fill="#032028" stroke="#D39720" stroke-miterlimit="10" cx="240" cy="390.263" r="4.5"/>
	<circle fill="#032028" stroke="#D39720" stroke-miterlimit="10" cx="235" cy="398.923" r="4.5"/>
	<circle fill="#032028" stroke="#D39720" stroke-miterlimit="10" cx="224.293" cy="379.265" r="4.5"/>
	<circle fill="#032028" stroke="#D39720" stroke-miterlimit="10" cx="217.865" cy="386.925" r="4.5"/>
	<circle fill="#032028" stroke="#D39720" stroke-miterlimit="10" cx="210.735" cy="365.706" r="4.5"/>
	<circle fill="#032028" stroke="#D39720" stroke-miterlimit="10" cx="203.074" cy="372.134" r="4.5"/>
	<circle fill="#032028" stroke="#D39720" stroke-miterlimit="10" cx="199.737" cy="350" r="4.5"/>
	<circle fill="#032028" stroke="#D39720" stroke-miterlimit="10" cx="191.077" cy="355" r="4.5"/>
	<circle fill="#032028" stroke="#D39720" stroke-miterlimit="10" cx="191.634" cy="332.622" r="4.5"/>
	<circle fill="#032028" stroke="#D39720" stroke-miterlimit="10" cx="182.237" cy="336.042" r="4.5"/>
	<circle fill="#032028" stroke="#D39720" stroke-miterlimit="10" cx="186.671" cy="314.101" r="4.5"/>
	<circle fill="#032028" stroke="#D39720" stroke-miterlimit="10" cx="176.823" cy="315.837" r="4.5"/>
	<circle fill="#032028" stroke="#D39720" stroke-miterlimit="10" cx="185" cy="295" r="4.5"/>
	<circle fill="#032028" stroke="#D39720" stroke-miterlimit="10" cx="175" cy="295" r="4.5"/>
	<circle fill="#032028" stroke="#D39720" stroke-miterlimit="10" cx="186.671" cy="275.898" r="4.5"/>
	<circle fill="#032028" stroke="#D39720" stroke-miterlimit="10" cx="176.823" cy="274.162" r="4.5"/>
	<circle fill="#032028" stroke="#D39720" stroke-miterlimit="10" cx="191.634" cy="257.377" r="4.5"/>
	<circle fill="#032028" stroke="#D39720" stroke-miterlimit="10" cx="182.237" cy="253.957" r="4.5"/>
	<circle fill="#032028" stroke="#D39720" stroke-miterlimit="10" cx="199.737" cy="240" r="4.5"/>
	<circle fill="#032028" stroke="#D39720" stroke-miterlimit="10" cx="191.077" cy="235" r="4.5"/>
	<circle fill="#032028" stroke="#D39720" stroke-miterlimit="10" cx="210.735" cy="224.293" r="4.5"/>
	<circle fill="#032028" stroke="#D39720" stroke-miterlimit="10" cx="203.075" cy="217.865" r="4.5"/>
	<circle fill="#032028" stroke="#D39720" stroke-miterlimit="10" cx="224.294" cy="210.735" r="4.5"/>
	<circle fill="#032028" stroke="#D39720" stroke-miterlimit="10" cx="217.866" cy="203.074" r="4.5"/>
	<circle fill="#032028" stroke="#D39720" stroke-miterlimit="10" cx="240" cy="199.737" r="4.5"/>
	<circle fill="#032028" stroke="#D39720" stroke-miterlimit="10" cx="235" cy="191.077" r="4.5"/>
	<circle fill="#032028" stroke="#D39720" stroke-miterlimit="10" cx="257.378" cy="191.634" r="4.5"/>
	<circle fill="#032028" stroke="#D39720" stroke-miterlimit="10" cx="253.958" cy="182.237" r="4.5"/>
	<circle fill="#032028" stroke="#D39720" stroke-miterlimit="10" cx="275.899" cy="186.671" r="4.5"/>
	<circle fill="#032028" stroke="#D39720" stroke-miterlimit="10" cx="274.163" cy="176.823" r="4.5"/>
	<circle fill="#032028" stroke="#D39720" stroke-miterlimit="10" cx="295.001" cy="165" r="4.5"/>
	<circle fill="#032028" stroke="#D39720" stroke-miterlimit="10" cx="295.001" cy="155" r="4.5"/>
	<circle fill="#032028" stroke="#D39720" stroke-miterlimit="10" cx="295.001" cy="145" r="4.5"/>
	<circle fill="#032028" stroke="#D39720" stroke-miterlimit="10" cx="347.876" cy="176.239" r="4.5"/>
	<circle fill="#032028" stroke="#D39720" stroke-miterlimit="10" cx="351.944" cy="167.104" r="4.5"/>
	<circle fill="#032028" stroke="#D39720" stroke-miterlimit="10" cx="356.011" cy="157.968" r="4.5"/>
	<circle fill="#032028" stroke="#D39720" stroke-miterlimit="10" cx="391.609" cy="208.013" r="4.5"/>
	<circle fill="#032028" stroke="#D39720" stroke-miterlimit="10" cx="399.041" cy="201.322" r="4.5"/>
	<circle fill="#032028" stroke="#D39720" stroke-miterlimit="10" cx="406.472" cy="194.631" r="4.5"/>
	<circle fill="#032028" stroke="#D39720" stroke-miterlimit="10" cx="418.638" cy="254.828" r="4.5"/>
	<circle fill="#032028" stroke="#D39720" stroke-miterlimit="10" cx="428.148" cy="251.738" r="4.5"/>
	<circle fill="#032028" stroke="#D39720" stroke-miterlimit="10" cx="437.659" cy="248.648" r="4.5"/>
	<circle fill="#032028" stroke="#D39720" stroke-miterlimit="10" cx="424.288" cy="308.589" r="4.5"/>
	<circle fill="#032028" stroke="#D39720" stroke-miterlimit="10" cx="434.233" cy="309.634" r="4.5"/>
	<circle fill="#032028" stroke="#D39720" stroke-miterlimit="10" cx="444.178" cy="310.68" r="4.5"/>
	<circle fill="#032028" stroke="#D39720" stroke-miterlimit="10" cx="407.583" cy="360" r="4.5"/>
	<circle fill="#032028" stroke="#D39720" stroke-miterlimit="10" cx="416.243" cy="365" r="4.5"/>
	<circle fill="#032028" stroke="#D39720" stroke-miterlimit="10" cx="424.904" cy="370" r="4.5"/>
	<circle fill="#032028" stroke="#D39720" stroke-miterlimit="10" cx="371.412" cy="400.173" r="4.5"/>
	<circle fill="#032028" stroke="#D39720" stroke-miterlimit="10" cx="377.29" cy="408.263" r="4.5"/>
	<circle fill="#032028" stroke="#D39720" stroke-miterlimit="10" cx="383.167" cy="416.353" r="4.5"/>
	<circle fill="#032028" stroke="#D39720" stroke-miterlimit="10" cx="322.028" cy="422.159" r="4.5"/>
	<circle fill="#032028" stroke="#D39720" stroke-miterlimit="10" cx="324.107" cy="431.941" r="4.5"/>
	<circle fill="#032028" stroke="#D39720" stroke-miterlimit="10" cx="326.186" cy="441.722" r="4.5"/>
	<circle fill="#032028" stroke="#D39720" stroke-miterlimit="10" cx="267.971" cy="422.159" r="4.5"/>
	<circle fill="#032028" stroke="#D39720" stroke-miterlimit="10" cx="265.892" cy="431.941" r="4.5"/>
	<circle fill="#032028" stroke="#D39720" stroke-miterlimit="10" cx="263.813" cy="441.722" r="4.5"/>
	<circle fill="#032028" stroke="#D39720" stroke-miterlimit="10" cx="218.588" cy="400.172" r="4.5"/>
	<circle fill="#032028" stroke="#D39720" stroke-miterlimit="10" cx="212.71" cy="408.262" r="4.5"/>
	<circle fill="#032028" stroke="#D39720" stroke-miterlimit="10" cx="206.832" cy="416.352" r="4.5"/>
	<circle fill="#032028" stroke="#D39720" stroke-miterlimit="10" cx="182.416" cy="360" r="4.5"/>
	<circle fill="#032028" stroke="#D39720" stroke-miterlimit="10" cx="173.756" cy="365" r="4.5"/>
	<circle fill="#032028" stroke="#D39720" stroke-miterlimit="10" cx="165.096" cy="370" r="4.5"/>
	<circle fill="#032028" stroke="#D39720" stroke-miterlimit="10" cx="165.712" cy="308.588" r="4.5"/>
	<circle fill="#032028" stroke="#D39720" stroke-miterlimit="10" cx="155.767" cy="309.634" r="4.5"/>
	<circle fill="#032028" stroke="#D39720" stroke-miterlimit="10" cx="145.822" cy="310.679" r="4.5"/>
	<circle fill="#032028" stroke="#D39720" stroke-miterlimit="10" cx="171.363" cy="254.827" r="4.5"/>
	<circle fill="#032028" stroke="#D39720" stroke-miterlimit="10" cx="161.852" cy="251.737" r="4.5"/>
	<circle fill="#032028" stroke="#D39720" stroke-miterlimit="10" cx="152.342" cy="248.647" r="4.5"/>
	<circle fill="#032028" stroke="#D39720" stroke-miterlimit="10" cx="198.391" cy="208.013" r="4.5"/>
	<circle fill="#032028" stroke="#D39720" stroke-miterlimit="10" cx="190.96" cy="201.321" r="4.5"/>
	<circle fill="#032028" stroke="#D39720" stroke-miterlimit="10" cx="183.529" cy="194.63" r="4.5"/>
	<circle fill="#032028" stroke="#D39720" stroke-miterlimit="10" cx="242.125" cy="176.239" r="4.5"/>
	<circle fill="#032028" stroke="#D39720" stroke-miterlimit="10" cx="238.057" cy="167.103" r="4.5"/>
	<circle fill="#032028" stroke="#D39720" stroke-miterlimit="10" cx="233.99" cy="157.968" r="4.5"/>
	<circle fill="#032028" stroke="#D39720" stroke-miterlimit="10" cx="295.001" cy="135" r="4.5"/>
	<circle fill="#032028" stroke="#D39720" stroke-miterlimit="10" cx="295.001" cy="125" r="4.5"/>
	<circle fill="#032028" stroke="#D39720" stroke-miterlimit="10" cx="295.001" cy="115" r="4.5"/>
	<circle fill="#032028" stroke="#D39720" stroke-miterlimit="10" cx="408.137" cy="181.863" r="4.5"/>
	<circle fill="#032028" stroke="#D39720" stroke-miterlimit="10" cx="415.209" cy="174.792" r="4.5"/>
	<circle fill="#032028" stroke="#D39720" stroke-miterlimit="10" cx="422.28" cy="167.721" r="4.5"/>
	<circle fill="#032028" stroke="#D39720" stroke-miterlimit="10" cx="455" cy="295.001" r="4.5"/>
	<circle fill="#032028" stroke="#D39720" stroke-miterlimit="10" cx="465" cy="295.001" r="4.5"/>
	<circle fill="#032028" stroke="#D39720" stroke-miterlimit="10" cx="475" cy="295.001" r="4.5"/>
	<circle fill="#032028" stroke="#D39720" stroke-miterlimit="10" cx="408.137" cy="408.137" r="4.5"/>
	<circle fill="#032028" stroke="#D39720" stroke-miterlimit="10" cx="415.208" cy="415.209" r="4.5"/>
	<circle fill="#032028" stroke="#D39720" stroke-miterlimit="10" cx="422.279" cy="422.28" r="4.5"/>
	<circle fill="#032028" stroke="#D39720" stroke-miterlimit="10" cx="295" cy="455" r="4.5"/>
	<circle fill="#032028" stroke="#D39720" stroke-miterlimit="10" cx="295" cy="465" r="4.5"/>
	<circle fill="#032028" stroke="#D39720" stroke-miterlimit="10" cx="295" cy="475" r="4.5"/>
	<circle fill="#032028" stroke="#D39720" stroke-miterlimit="10" cx="215" cy="433.564" r="4.5"/>
	<circle fill="#032028" stroke="#D39720" stroke-miterlimit="10" cx="210" cy="442.224" r="4.5"/>
	<circle fill="#032028" stroke="#D39720" stroke-miterlimit="10" cx="205" cy="450.884" r="4.5"/>
	<circle fill="#032028" stroke="#D39720" stroke-miterlimit="10" cx="156.436" cy="375" r="4.5"/>
	<circle fill="#032028" stroke="#D39720" stroke-miterlimit="10" cx="147.775" cy="380" r="4.5"/>
	<circle fill="#032028" stroke="#D39720" stroke-miterlimit="10" cx="139.115" cy="385" r="4.5"/>
	<circle fill="#032028" stroke="#D39720" stroke-miterlimit="10" cx="135" cy="295" r="4.5"/>
	<circle fill="#032028" stroke="#D39720" stroke-miterlimit="10" cx="125" cy="295" r="4.5"/>
	<circle fill="#032028" stroke="#D39720" stroke-miterlimit="10" cx="115" cy="295" r="4.5"/>
	<circle fill="#032028" stroke="#D39720" stroke-miterlimit="10" cx="156.436" cy="215" r="4.5"/>
	<circle fill="#032028" stroke="#D39720" stroke-miterlimit="10" cx="147.776" cy="210" r="4.5"/>
	<circle fill="#032028" stroke="#D39720" stroke-miterlimit="10" cx="139.116" cy="205" r="4.5"/>
	<circle fill="#032028" stroke="#D39720" stroke-miterlimit="10" cx="215" cy="156.436" r="4.5"/>
	<circle fill="#032028" stroke="#D39720" stroke-miterlimit="10" cx="210" cy="147.775" r="4.5"/>
	<circle fill="#032028" stroke="#D39720" stroke-miterlimit="10" cx="205" cy="139.115" r="4.5"/>
	<circle fill="#032028" stroke="#1C84D2" stroke-miterlimit="10" cx="295.001" cy="105" r="4.5"/>
	<circle fill="#032028" stroke="#1C84D2" stroke-miterlimit="10" cx="295.001" cy="95" r="4.5"/>
	<circle fill="#032028" stroke="#1C84D2" stroke-miterlimit="10" cx="295.001" cy="85" r="4.5"/>
	<circle fill="#032028" stroke="#1C84D2" stroke-miterlimit="10" cx="295.001" cy="75" r="4.5"/>
	<circle fill="#032028" stroke="#1C84D2" stroke-miterlimit="10" cx="359.984" cy="116.459" r="4.5"/>
	<circle fill="#032028" stroke="#1C84D2" stroke-miterlimit="10" cx="363.405" cy="107.062" r="4.5"/>
	<circle fill="#032028" stroke="#1C84D2" stroke-miterlimit="10" cx="366.825" cy="97.665" r="4.5"/>
	<circle fill="#032028" stroke="#1C84D2" stroke-miterlimit="10" cx="370.245" cy="88.268" r="4.5"/>
	<circle fill="#032028" stroke="#1C84D2" stroke-miterlimit="10" cx="417.13" cy="149.452" r="4.5"/>
	<circle fill="#032028" stroke="#1C84D2" stroke-miterlimit="10" cx="423.558" cy="141.791" r="4.5"/>
	<circle fill="#032028" stroke="#1C84D2" stroke-miterlimit="10" cx="429.986" cy="134.131" r="4.5"/>
	<circle fill="#032028" stroke="#1C84D2" stroke-miterlimit="10" cx="436.414" cy="126.471" r="4.5"/>
	<circle fill="#032028" stroke="#1C84D2" stroke-miterlimit="10" cx="459.545" cy="200" r="4.5"/>
	<circle fill="#032028" stroke="#1C84D2" stroke-miterlimit="10" cx="468.205" cy="195" r="4.5"/>
	<circle fill="#032028" stroke="#1C84D2" stroke-miterlimit="10" cx="476.866" cy="190" r="4.5"/>
	<circle fill="#032028" stroke="#1C84D2" stroke-miterlimit="10" cx="485.526" cy="185" r="4.5"/>
	<circle fill="#032028" stroke="#1C84D2" stroke-miterlimit="10" cx="482.114" cy="262.007" r="4.5"/>
	<circle fill="#032028" stroke="#1C84D2" stroke-miterlimit="10" cx="491.962" cy="260.271" r="4.5"/>
	<circle fill="#032028" stroke="#1C84D2" stroke-miterlimit="10" cx="501.81" cy="258.534" r="4.5"/>
	<circle fill="#032028" stroke="#1C84D2" stroke-miterlimit="10" cx="511.658" cy="256.798" r="4.5"/>
	<circle fill="#032028" stroke="#1C84D2" stroke-miterlimit="10" cx="482.113" cy="327.994" r="4.5"/>
	<circle fill="#032028" stroke="#1C84D2" stroke-miterlimit="10" cx="491.962" cy="329.73" r="4.5"/>
	<circle fill="#032028" stroke="#1C84D2" stroke-miterlimit="10" cx="501.81" cy="331.467" r="4.5"/>
	<circle fill="#032028" stroke="#1C84D2" stroke-miterlimit="10" cx="511.658" cy="333.203" r="4.5"/>
	<circle fill="#032028" stroke="#1C84D2" stroke-miterlimit="10" cx="459.545" cy="390" r="4.5"/>
	<circle fill="#032028" stroke="#1C84D2" stroke-miterlimit="10" cx="468.205" cy="395" r="4.5"/>
	<circle fill="#032028" stroke="#1C84D2" stroke-miterlimit="10" cx="476.865" cy="400" r="4.5"/>
	<circle fill="#032028" stroke="#1C84D2" stroke-miterlimit="10" cx="485.525" cy="405" r="4.5"/>
	<circle fill="#032028" stroke="#1C84D2" stroke-miterlimit="10" cx="417.129" cy="440.549" r="4.5"/>
	<circle fill="#032028" stroke="#1C84D2" stroke-miterlimit="10" cx="423.557" cy="448.209" r="4.5"/>
	<circle fill="#032028" stroke="#1C84D2" stroke-miterlimit="10" cx="429.985" cy="455.87" r="4.5"/>
	<circle fill="#032028" stroke="#1C84D2" stroke-miterlimit="10" cx="436.413" cy="463.53" r="4.5"/>
	<circle fill="#032028" stroke="#1C84D2" stroke-miterlimit="10" cx="359.983" cy="473.542" r="4.5"/>
	<circle fill="#032028" stroke="#1C84D2" stroke-miterlimit="10" cx="363.404" cy="482.939" r="4.5"/>
	<circle fill="#032028" stroke="#1C84D2" stroke-miterlimit="10" cx="366.824" cy="492.336" r="4.5"/>
	<circle fill="#032028" stroke="#1C84D2" stroke-miterlimit="10" cx="370.244" cy="501.733" r="4.5"/>
	<circle fill="#032028" stroke="#1C84D2" stroke-miterlimit="10" cx="295" cy="485" r="4.5"/>
	<circle fill="#032028" stroke="#1C84D2" stroke-miterlimit="10" cx="295" cy="495" r="4.5"/>
	<circle fill="#032028" stroke="#1C84D2" stroke-miterlimit="10" cx="295" cy="505" r="4.5"/>
	<circle fill="#032028" stroke="#1C84D2" stroke-miterlimit="10" cx="295" cy="515" r="4.5"/>
	<circle fill="#032028" stroke="#1C84D2" stroke-miterlimit="10" cx="230.016" cy="473.541" r="4.5"/>
	<circle fill="#032028" stroke="#1C84D2" stroke-miterlimit="10" cx="226.596" cy="482.938" r="4.5"/>
	<circle fill="#032028" stroke="#1C84D2" stroke-miterlimit="10" cx="223.175" cy="492.335" r="4.5"/>
	<circle fill="#032028" stroke="#1C84D2" stroke-miterlimit="10" cx="219.755" cy="501.732" r="4.5"/>
	<circle fill="#032028" stroke="#1C84D2" stroke-miterlimit="10" cx="172.87" cy="440.548" r="4.5"/>
	<circle fill="#032028" stroke="#1C84D2" stroke-miterlimit="10" cx="166.442" cy="448.209" r="4.5"/>
	<circle fill="#032028" stroke="#1C84D2" stroke-miterlimit="10" cx="160.014" cy="455.869" r="4.5"/>
	<circle fill="#032028" stroke="#1C84D2" stroke-miterlimit="10" cx="153.586" cy="463.53" r="4.5"/>
	<circle fill="#032028" stroke="#1C84D2" stroke-miterlimit="10" cx="130.455" cy="390" r="4.5"/>
	<circle fill="#032028" stroke="#1C84D2" stroke-miterlimit="10" cx="121.795" cy="395" r="4.5"/>
	<circle fill="#032028" stroke="#1C84D2" stroke-miterlimit="10" cx="113.134" cy="400" r="4.5"/>
	<circle fill="#032028" stroke="#1C84D2" stroke-miterlimit="10" cx="104.474" cy="405" r="4.5"/>
	<circle fill="#032028" stroke="#1C84D2" stroke-miterlimit="10" cx="107.886" cy="327.993" r="4.5"/>
	<circle fill="#032028" stroke="#1C84D2" stroke-miterlimit="10" cx="98.038" cy="329.729" r="4.5"/>
	<circle fill="#032028" stroke="#1C84D2" stroke-miterlimit="10" cx="88.19" cy="331.466" r="4.5"/>
	<circle fill="#032028" stroke="#1C84D2" stroke-miterlimit="10" cx="78.342" cy="333.202" r="4.5"/>
	<circle fill="#032028" stroke="#1C84D2" stroke-miterlimit="10" cx="107.887" cy="262.006" r="4.5"/>
	<circle fill="#032028" stroke="#1C84D2" stroke-miterlimit="10" cx="98.039" cy="260.27" r="4.5"/>
	<circle fill="#032028" stroke="#1C84D2" stroke-miterlimit="10" cx="88.19" cy="258.533" r="4.5"/>
	<circle fill="#032028" stroke="#1C84D2" stroke-miterlimit="10" cx="78.342" cy="256.797" r="4.5"/>
	<circle fill="#032028" stroke="#1C84D2" stroke-miterlimit="10" cx="130.455" cy="200" r="4.5"/>
	<circle fill="#032028" stroke="#1C84D2" stroke-miterlimit="10" cx="121.795" cy="195" r="4.5"/>
	<circle fill="#032028" stroke="#1C84D2" stroke-miterlimit="10" cx="113.135" cy="190" r="4.5"/>
	<circle fill="#032028" stroke="#1C84D2" stroke-miterlimit="10" cx="104.475" cy="185" r="4.5"/>
	<circle fill="#032028" stroke="#1C84D2" stroke-miterlimit="10" cx="172.871" cy="149.451" r="4.5"/>
	<circle fill="#032028" stroke="#1C84D2" stroke-miterlimit="10" cx="166.443" cy="141.791" r="4.5"/>
	<circle fill="#032028" stroke="#1C84D2" stroke-miterlimit="10" cx="160.015" cy="134.13" r="4.5"/>
	<circle fill="#032028" stroke="#1C84D2" stroke-miterlimit="10" cx="153.587" cy="126.47" r="4.5"/>
	<circle fill="#032028" stroke="#1C84D2" stroke-miterlimit="10" cx="230.017" cy="116.458" r="4.5"/>
	<circle fill="#032028" stroke="#1C84D2" stroke-miterlimit="10" cx="226.596" cy="107.061" r="4.5"/>
	<circle fill="#032028" stroke="#1C84D2" stroke-miterlimit="10" cx="223.176" cy="97.664" r="4.5"/>
	<circle fill="#032028" stroke="#1C84D2" stroke-miterlimit="10" cx="219.756" cy="88.267" r="4.5"/>
	<circle fill="#032028" stroke="#1C84D2" stroke-miterlimit="10" cx="295.001" cy="65" r="4.5"/>
	<circle fill="#032028" stroke="#1C84D2" stroke-miterlimit="10" cx="295.001" cy="55" r="4.5"/>
	<circle fill="#032028" stroke="#1C84D2" stroke-miterlimit="10" cx="295.001" cy="45" r="4.5"/>
	<circle fill="#032028" stroke="#1C84D2" stroke-miterlimit="10" cx="457.635" cy="132.366" r="4.5"/>
	<circle fill="#032028" stroke="#1C84D2" stroke-miterlimit="10" cx="464.706" cy="125.295" r="4.5"/>
	<circle fill="#032028" stroke="#1C84D2" stroke-miterlimit="10" cx="471.777" cy="118.224" r="4.5"/>
	<circle fill="#032028" stroke="#1C84D2" stroke-miterlimit="10" cx="525" cy="295.001" r="4.5"/>
	<circle fill="#032028" stroke="#1C84D2" stroke-miterlimit="10" cx="535" cy="295.001" r="4.5"/>
	<circle fill="#032028" stroke="#1C84D2" stroke-miterlimit="10" cx="545" cy="295.001" r="4.5"/>
	<circle fill="#032028" stroke="#1C84D2" stroke-miterlimit="10" cx="457.634" cy="457.635" r="4.5"/>
	<circle fill="#032028" stroke="#1C84D2" stroke-miterlimit="10" cx="464.705" cy="464.706" r="4.5"/>
	<circle fill="#032028" stroke="#1C84D2" stroke-miterlimit="10" cx="471.776" cy="471.777" r="4.5"/>
	<circle fill="#032028" stroke="#1C84D2" stroke-miterlimit="10" cx="295" cy="525" r="4.5"/>
	<circle fill="#032028" stroke="#1C84D2" stroke-miterlimit="10" cx="295" cy="535" r="4.5"/>
	<circle fill="#032028" stroke="#1C84D2" stroke-miterlimit="10" cx="295" cy="545" r="4.5"/>
	<circle fill="#032028" stroke="#1C84D2" stroke-miterlimit="10" cx="180" cy="494.186" r="4.5"/>
	<circle fill="#032028" stroke="#1C84D2" stroke-miterlimit="10" cx="175" cy="502.846" r="4.5"/>
	<circle fill="#032028" stroke="#1C84D2" stroke-miterlimit="10" cx="170" cy="511.506" r="4.5"/>
	<circle fill="#032028" stroke="#1C84D2" stroke-miterlimit="10" cx="95.814" cy="410" r="4.5"/>
	<circle fill="#032028" stroke="#1C84D2" stroke-miterlimit="10" cx="87.154" cy="415" r="4.5"/>
	<circle fill="#032028" stroke="#1C84D2" stroke-miterlimit="10" cx="78.493" cy="420" r="4.5"/>
	<circle fill="#032028" stroke="#1C84D2" stroke-miterlimit="10" cx="65" cy="295" r="4.5"/>
	<circle fill="#032028" stroke="#1C84D2" stroke-miterlimit="10" cx="55" cy="295" r="4.5"/>
	<circle fill="#032028" stroke="#1C84D2" stroke-miterlimit="10" cx="45" cy="295" r="4.5"/>
	<circle fill="#032028" stroke="#1C84D2" stroke-miterlimit="10" cx="95.814" cy="180" r="4.5"/>
	<circle fill="#032028" stroke="#1C84D2" stroke-miterlimit="10" cx="87.154" cy="175" r="4.5"/>
	<circle fill="#032028" stroke="#1C84D2" stroke-miterlimit="10" cx="78.494" cy="170" r="4.5"/>
	<circle fill="#032028" stroke="#1C84D2" stroke-miterlimit="10" cx="180" cy="95.814" r="4.5"/>
	<circle fill="#032028" stroke="#1C84D2" stroke-miterlimit="10" cx="175" cy="87.154" r="4.5"/>
	<circle fill="#032028" stroke="#1C84D2" stroke-miterlimit="10" cx="170" cy="78.493" r="4.5"/>
	<circle fill="#032028" stroke="#1C84D2" stroke-miterlimit="10" cx="295.001" cy="35" r="4.5"/>
	<circle fill="#032028" stroke="#1C84D2" stroke-miterlimit="10" cx="295.001" cy="25" r="4.5"/>
	<circle fill="#032028" stroke="#1C84D2" stroke-miterlimit="10" cx="295.001" cy="15" r="4.5"/>
	<circle fill="#032028" stroke="#1C84D2" stroke-miterlimit="10" cx="295.001" cy="5" r="4.5"/>
	<circle fill="#032028" stroke="#1C84D2" stroke-miterlimit="10" cx="447.825" cy="84.656" r="4.5"/>
	<circle fill="#032028" stroke="#1C84D2" stroke-miterlimit="10" cx="453.702" cy="76.566" r="4.5"/>
	<circle fill="#032028" stroke="#1C84D2" stroke-miterlimit="10" cx="459.58" cy="68.476" r="4.5"/>
	<circle fill="#032028" stroke="#1C84D2" stroke-miterlimit="10" cx="465.458" cy="60.385" r="4.5"/>
	<circle fill="#032028" stroke="#1C84D2" stroke-miterlimit="10" cx="542.275" cy="214.656" r="4.5"/>
	<circle fill="#032028" stroke="#1C84D2" stroke-miterlimit="10" cx="551.785" cy="211.566" r="4.5"/>
	<circle fill="#032028" stroke="#1C84D2" stroke-miterlimit="10" cx="561.296" cy="208.476" r="4.5"/>
	<circle fill="#032028" stroke="#1C84D2" stroke-miterlimit="10" cx="570.807" cy="205.386" r="4.5"/>
	<circle fill="#032028" stroke="#1C84D2" stroke-miterlimit="10" cx="542.275" cy="375.345" r="4.5"/>
	<circle fill="#032028" stroke="#1C84D2" stroke-miterlimit="10" cx="551.785" cy="378.435" r="4.5"/>
	<circle fill="#032028" stroke="#1C84D2" stroke-miterlimit="10" cx="561.296" cy="381.525" r="4.5"/>
	<circle fill="#032028" stroke="#1C84D2" stroke-miterlimit="10" cx="570.806" cy="384.615" r="4.5"/>
	<circle fill="#032028" stroke="#1C84D2" stroke-miterlimit="10" cx="447.824" cy="505.345" r="4.5"/>
	<circle fill="#032028" stroke="#1C84D2" stroke-miterlimit="10" cx="453.702" cy="513.435" r="4.5"/>
	<circle fill="#032028" stroke="#1C84D2" stroke-miterlimit="10" cx="459.579" cy="521.525" r="4.5"/>
	<circle fill="#032028" stroke="#1C84D2" stroke-miterlimit="10" cx="465.457" cy="529.615" r="4.5"/>
	<circle fill="#032028" stroke="#1C84D2" stroke-miterlimit="10" cx="295" cy="555" r="4.5"/>
	<circle fill="#032028" stroke="#1C84D2" stroke-miterlimit="10" cx="295" cy="565" r="4.5"/>
	<circle fill="#032028" stroke="#1C84D2" stroke-miterlimit="10" cx="222.53" cy="565.459" r="4.5"/>
	<circle fill="#032028" stroke="#1C84D2" stroke-miterlimit="10" cx="219.942" cy="575.118" r="4.5"/>
	<circle fill="#032028" stroke="#1C84D2" stroke-miterlimit="10" cx="295" cy="575" r="4.5"/>
	<circle fill="#032028" stroke="#1C84D2" stroke-miterlimit="10" cx="295" cy="585" r="4.5"/>
	<circle fill="#032028" stroke="#1C84D2" stroke-miterlimit="10" cx="97.01" cy="492.99" r="4.5"/>
	<circle fill="#032028" stroke="#1C84D2" stroke-miterlimit="10" cx="89.939" cy="500.061" r="4.5"/>
	<circle fill="#032028" stroke="#1C84D2" stroke-miterlimit="10" cx="24.541" cy="367.469" r="4.5"/>
	<circle fill="#032028" stroke="#1C84D2" stroke-miterlimit="10" cx="14.881" cy="370.057" r="4.5"/>
	<circle fill="#032028" stroke="#1C84D2" stroke-miterlimit="10" cx="24.541" cy="222.53" r="4.5"/>
	<circle fill="#032028" stroke="#1C84D2" stroke-miterlimit="10" cx="14.882" cy="219.942" r="4.5"/>
	<circle fill="#032028" stroke="#1C84D2" stroke-miterlimit="10" cx="97.01" cy="97.01" r="4.5"/>
	<circle fill="#032028" stroke="#1C84D2" stroke-miterlimit="10" cx="89.939" cy="89.939" r="4.5"/>
	<circle fill="#032028" stroke="#1C84D2" stroke-miterlimit="10" cx="222.531" cy="24.541" r="4.5"/>
	<circle fill="#032028" stroke="#1C84D2" stroke-miterlimit="10" cx="219.943" cy="14.881" r="4.5"/>
	<circle fill="#032028" stroke="#1C84D2" stroke-miterlimit="10" cx="165" cy="520.166" r="4.5"/>
	<circle fill="#032028" stroke="#1C84D2" stroke-miterlimit="10" cx="160" cy="528.827" r="4.5"/>
	<circle fill="#032028" stroke="#1C84D2" stroke-miterlimit="10" cx="155" cy="537.487" r="4.5"/>
	<circle fill="#032028" stroke="#1C84D2" stroke-miterlimit="10" cx="150" cy="546.147" r="4.5"/>
	<circle fill="#032028" stroke="#1C84D2" stroke-miterlimit="10" cx="69.833" cy="425" r="4.5"/>
	<circle fill="#032028" stroke="#1C84D2" stroke-miterlimit="10" cx="61.173" cy="430" r="4.5"/>
	<circle fill="#032028" stroke="#1C84D2" stroke-miterlimit="10" cx="52.513" cy="435" r="4.5"/>
	<circle fill="#032028" stroke="#1C84D2" stroke-miterlimit="10" cx="43.852" cy="440" r="4.5"/>
	<circle fill="#032028" stroke="#1C84D2" stroke-miterlimit="10" cx="35" cy="295" r="4.5"/>
	<circle fill="#032028" stroke="#1C84D2" stroke-miterlimit="10" cx="25" cy="295" r="4.5"/>
	<circle fill="#032028" stroke="#1C84D2" stroke-miterlimit="10" cx="15" cy="295" r="4.5"/>
	<circle fill="#032028" stroke="#1C84D2" stroke-miterlimit="10" cx="5" cy="295" r="4.5"/>
	<circle fill="#032028" stroke="#1C84D2" stroke-miterlimit="10" cx="69.834" cy="165" r="4.5"/>
	<circle fill="#032028" stroke="#1C84D2" stroke-miterlimit="10" cx="61.173" cy="160" r="4.5"/>
	<circle fill="#032028" stroke="#1C84D2" stroke-miterlimit="10" cx="52.513" cy="155" r="4.5"/>
	<circle fill="#032028" stroke="#1C84D2" stroke-miterlimit="10" cx="43.853" cy="150" r="4.5"/>
	<circle fill="#032028" stroke="#1C84D2" stroke-miterlimit="10" cx="165" cy="69.833" r="4.5"/>
	<circle fill="#032028" stroke="#1C84D2" stroke-miterlimit="10" cx="160" cy="61.173" r="4.5"/>
	<circle fill="#032028" stroke="#1C84D2" stroke-miterlimit="10" cx="155" cy="52.513" r="4.5"/>
	<circle fill="#032028" stroke="#1C84D2" stroke-miterlimit="10" cx="150" cy="43.852" r="4.5"/>
	<g>
		<path fill="#032028" d="M322.362,223.826c-0.466,0-0.926-0.082-1.368-0.242c-1.004-0.366-1.806-1.1-2.258-2.068
			c-0.451-0.968-0.498-2.054-0.133-3.059c0.573-1.575,2.084-2.633,3.759-2.633c0.466,0,0.926,0.082,1.368,0.242
			c2.072,0.754,3.145,3.054,2.391,5.127C325.548,222.768,324.037,223.826,322.362,223.826z"/>
		<path fill="#1ED6B3" d="M322.363,216.324L322.363,216.324c0.407,0,0.809,0.071,1.196,0.212c1.813,0.66,2.752,2.672,2.092,4.486
			c-0.502,1.378-1.823,2.304-3.289,2.304c-0.407,0-0.81-0.071-1.197-0.212c-0.879-0.32-1.58-0.962-1.975-1.81
			c-0.395-0.847-0.437-1.798-0.117-2.676C319.575,217.25,320.897,216.324,322.363,216.324 M322.362,215.324
			c-1.838,0-3.564,1.135-4.229,2.962c-0.85,2.335,0.354,4.918,2.69,5.768c0.508,0.185,1.028,0.273,1.539,0.273
			c1.838,0,3.564-1.135,4.229-2.962c0.85-2.335-0.354-4.918-2.69-5.768C323.393,215.411,322.874,215.324,322.362,215.324
			L322.362,215.324z"/>
	</g>
	<g>
		<path fill="#032028" d="M325.782,214.429c-0.466,0-0.926-0.082-1.368-0.242c-2.072-0.754-3.145-3.054-2.391-5.127
			c0.573-1.575,2.084-2.633,3.759-2.633c0.466,0,0.926,0.082,1.368,0.242c1.004,0.366,1.806,1.1,2.258,2.068
			c0.451,0.968,0.498,2.054,0.133,3.059C328.968,213.371,327.457,214.429,325.782,214.429z"/>
		<path fill="#1ED6B3" d="M325.783,206.927L325.783,206.927c0.407,0,0.809,0.071,1.196,0.212c0.879,0.32,1.58,0.962,1.975,1.81
			c0.395,0.847,0.437,1.798,0.117,2.676c-0.502,1.378-1.823,2.304-3.289,2.304c-0.407,0-0.81-0.071-1.197-0.212
			c-0.879-0.32-1.58-0.962-1.975-1.81s-0.437-1.798-0.117-2.676C322.995,207.853,324.317,206.927,325.783,206.927 M325.783,205.927
			c-1.838,0-3.564,1.135-4.229,2.962c-0.85,2.335,0.354,4.918,2.69,5.768c0.508,0.185,1.028,0.273,1.539,0.273
			c1.838,0,3.564-1.135,4.229-2.962c0.85-2.335-0.354-4.918-2.69-5.768C326.813,206.014,326.294,205.927,325.783,205.927
			L325.783,205.927z"/>
	</g>
	<g>
		<path fill="#032028" d="M329.202,205.032c-0.466,0-0.926-0.082-1.368-0.242c-2.072-0.754-3.145-3.054-2.391-5.127
			c0.573-1.575,2.084-2.633,3.759-2.633c0.466,0,0.926,0.082,1.368,0.242c1.004,0.366,1.806,1.1,2.258,2.068
			c0.451,0.968,0.498,2.054,0.133,3.059C332.388,203.974,330.877,205.032,329.202,205.032z"/>
		<path fill="#1ED6B3" d="M329.203,197.53L329.203,197.53c0.407,0,0.809,0.071,1.196,0.212c1.814,0.66,2.752,2.672,2.092,4.486
			c-0.502,1.378-1.823,2.304-3.289,2.304c-0.407,0-0.81-0.071-1.197-0.212c-0.879-0.32-1.58-0.962-1.975-1.81
			c-0.395-0.847-0.437-1.798-0.117-2.676C326.415,198.456,327.737,197.53,329.203,197.53 M329.203,196.53
			c-1.838,0-3.564,1.135-4.229,2.962c-0.85,2.335,0.354,4.918,2.69,5.768c0.508,0.185,1.028,0.273,1.539,0.273
			c1.838,0,3.564-1.135,4.229-2.962c0.85-2.335-0.354-4.918-2.69-5.768C330.233,196.617,329.714,196.53,329.203,196.53
			L329.203,196.53z"/>
	</g>
</g>
<g id="sections">
	<g id="webSection">
		<path fill="none" stroke="#1C84D2" stroke-linecap="round" stroke-miterlimit="10" d="M295,5
			c74.217,0,148.435,28.313,205.061,84.939c113.252,113.252,113.252,296.87,0,410.122s-296.87,113.252-410.122,0
			s-113.252-296.87,0-410.122C146.565,33.313,220.783,5,295,5"/>
		<path fill="none" stroke="#1C84D2" stroke-linecap="round" stroke-miterlimit="10" d="M295,15
			c71.658,0,143.317,27.337,197.99,82.01c109.347,109.347,109.347,286.633,0,395.98s-286.633,109.347-395.98,0
			s-109.347-286.633,0-395.98C151.683,42.337,223.342,15,295,15"/>
		<path fill="none" stroke="#1C84D2" stroke-linecap="round" stroke-miterlimit="10" d="M295,25
			c69.099,0,138.198,26.36,190.919,79.081c105.442,105.442,105.442,276.396,0,381.838s-276.396,105.441-381.838,0
			s-105.442-276.396,0-381.838C156.802,51.36,225.901,25,295,25"/>
		<path fill="none" stroke="#1C84D2" stroke-linecap="round" stroke-miterlimit="10" d="M295,35
			c66.54,0,133.08,25.384,183.848,76.152c101.536,101.536,101.536,266.159,0,367.695s-266.159,101.536-367.696,0
			s-101.536-266.159,0-367.695C161.92,60.384,228.46,35,295,35"/>
		<path fill="none" stroke="#1C84D2" stroke-linecap="round" stroke-miterlimit="10" d="M295,45
			c63.981,0,127.961,24.408,176.777,73.223c97.631,97.631,97.631,255.922,0,353.553s-255.922,97.631-353.553,0
			s-97.631-255.922,0-353.553C167.039,69.408,231.019,45,295,45"/>
		<path fill="none" stroke="#1C84D2" stroke-linecap="round" stroke-miterlimit="10" d="M295,55
			c61.421,0,122.843,23.431,169.706,70.294c93.726,93.726,93.726,245.685,0,339.411s-245.685,93.726-339.411,0
			s-93.726-245.685,0-339.411C172.157,78.431,233.579,55,295,55"/>
		<path fill="none" stroke="#1C84D2" stroke-linecap="round" stroke-miterlimit="10" d="M295,65
			c58.862,0,117.724,22.455,162.635,67.365c89.821,89.821,89.821,235.449,0,325.269c-89.821,89.821-235.449,89.821-325.269,0
			s-89.821-235.449,0-325.269C177.276,87.455,236.138,65,295,65"/>
		<path fill="none" stroke="#1C84D2" stroke-linecap="round" stroke-miterlimit="10" d="M295,75
			c56.303,0,112.606,21.479,155.563,64.437c85.915,85.915,85.915,225.212,0,311.127s-225.212,85.915-311.127,0
			s-85.915-225.212,0-311.127C182.394,96.479,238.697,75,295,75"/>
		<path fill="none" stroke="#1C84D2" stroke-linecap="round" stroke-miterlimit="10" d="M295,85
			c53.744,0,107.487,20.503,148.492,61.508c82.01,82.01,82.01,214.975,0,296.985c-82.01,82.01-214.975,82.01-296.985,0
			c-82.01-82.01-82.01-214.975,0-296.985C187.513,105.503,241.256,85,295,85"/>
		<path fill="none" stroke="#1C84D2" stroke-linecap="round" stroke-miterlimit="10" d="M295,95
			c51.185,0,102.369,19.526,141.421,58.579c78.105,78.105,78.105,204.738,0,282.843s-204.738,78.105-282.843,0
			s-78.105-204.738,0-282.843C192.631,114.526,243.816,95,295,95"/>
		<path fill="none" stroke="#1C84D2" stroke-linecap="round" stroke-miterlimit="10" d="M295,105c48.625,0,97.25,18.55,134.35,55.65
			c74.2,74.2,74.2,194.501,0,268.701s-194.501,74.2-268.701,0s-74.2-194.501,0-268.701C197.75,123.55,246.375,105,295,105"/>
	</g>
	<g id="appSection">
		<path fill="none" stroke="#D39720" stroke-linecap="round" stroke-miterlimit="10" d="M295,115
			c46.066,0,92.132,17.574,127.279,52.721c70.294,70.294,70.294,184.264,0,254.558s-184.264,70.294-254.558,0
			s-70.294-184.264,0-254.558C202.868,132.574,248.934,115,295,115"/>
		<path fill="none" stroke="#D39720" stroke-linecap="round" stroke-miterlimit="10" d="M295,125
			c43.507,0,87.014,16.597,120.208,49.792c66.389,66.389,66.389,174.027,0,240.416s-174.027,66.389-240.416,0
			s-66.389-174.027,0-240.416C207.986,141.597,251.493,125,295,125"/>
		<path fill="none" stroke="#D39720" stroke-linecap="round" stroke-miterlimit="10" d="M295,135
			c40.948,0,81.895,15.621,113.137,46.863c62.484,62.484,62.484,163.79,0,226.274s-163.79,62.484-226.274,0
			s-62.484-163.79,0-226.274C213.105,150.621,254.052,135,295,135"/>
		<path fill="none" stroke="#D39720" stroke-linecap="round" stroke-miterlimit="10" d="M295,145
			c38.388,0,76.777,14.645,106.066,43.934c58.579,58.579,58.579,153.553,0,212.132c-58.579,58.579-153.553,58.579-212.132,0
			c-58.579-58.579-58.579-153.553,0-212.132C218.223,159.645,256.612,145,295,145"/>
		<path fill="none" stroke="#D39720" stroke-linecap="round" stroke-miterlimit="10" d="M295,155
			c35.829,0,71.658,13.668,98.995,41.005c54.673,54.673,54.673,143.317,0,197.99s-143.316,54.673-197.99,0s-54.673-143.317,0-197.99
			C223.342,168.668,259.171,155,295,155"/>
		<path fill="none" stroke="#D39720" stroke-linecap="round" stroke-miterlimit="10" d="M295,165
			c33.27,0,66.54,12.692,91.924,38.076c50.768,50.768,50.768,133.08,0,183.848c-50.768,50.768-133.08,50.768-183.848,0
			c-50.768-50.768-50.768-133.08,0-183.848C228.46,177.692,261.73,165,295,165"/>
		<path fill="none" stroke="#D39720" stroke-linecap="round" stroke-miterlimit="10" d="M295,175
			c30.711,0,61.421,11.716,84.853,35.147c46.863,46.863,46.863,122.843,0,169.706s-122.843,46.863-169.706,0
			s-46.863-122.843,0-169.706C233.579,186.716,264.289,175,295,175"/>
		<path fill="none" stroke="#D39720" stroke-linecap="round" stroke-miterlimit="10" d="M295,185
			c28.151,0,56.303,10.739,77.782,32.218c42.958,42.958,42.958,112.606,0,155.563c-42.958,42.958-112.606,42.958-155.563,0
			c-42.958-42.958-42.958-112.606,0-155.563C238.697,195.739,266.849,185,295,185"/>
	</g>
	<g id="dbSection">
		<path fill="none" stroke="#1ED6B3" stroke-linecap="round" stroke-miterlimit="10" d="M295,195
			c25.592,0,51.184,9.763,70.711,29.289c39.052,39.052,39.052,102.369,0,141.421s-102.369,39.052-141.421,0
			s-39.052-102.369,0-141.421C243.816,204.763,269.408,195,295,195"/>
		<path fill="none" stroke="#1ED6B3" stroke-linecap="round" stroke-miterlimit="10" d="M295,205c23.033,0,46.066,8.787,63.64,26.36
			c35.147,35.147,35.147,92.132,0,127.279c-35.147,35.147-92.132,35.147-127.279,0c-35.147-35.147-35.147-92.132,0-127.279
			C248.934,213.787,271.967,205,295,205"/>
		<path fill="none" stroke="#1ED6B3" stroke-linecap="round" stroke-miterlimit="10" d="M295,215
			c20.474,0,40.948,7.81,56.569,23.431c31.242,31.242,31.242,81.895,0,113.137s-81.895,31.242-113.137,0s-31.242-81.895,0-113.137
			C254.052,222.811,274.526,215,295,215"/>
		<path fill="none" stroke="#1ED6B3" stroke-linecap="round" stroke-miterlimit="10" d="M295,225
			c17.915,0,35.829,6.834,49.497,20.503c27.337,27.337,27.337,71.658,0,98.995c-27.337,27.337-71.658,27.337-98.995,0
			c-27.337-27.337-27.337-71.658,0-98.995C259.171,231.834,277.085,225,295,225"/>
		<path fill="none" stroke="#1ED6B3" stroke-linecap="round" stroke-miterlimit="10" d="M295,235
			c15.355,0,30.711,5.858,42.426,17.574c23.431,23.431,23.431,61.421,0,84.853s-61.421,23.431-84.853,0s-23.431-61.421,0-84.853
			C264.289,240.858,279.645,235,295,235"/>
		<path fill="none" stroke="#1ED6B3" stroke-linecap="round" stroke-miterlimit="10" d="M295,245
			c12.796,0,25.592,4.882,35.355,14.645c19.526,19.526,19.526,51.184,0,70.711c-19.526,19.526-51.184,19.526-70.711,0
			c-19.526-19.526-19.526-51.185,0-70.711C269.408,249.882,282.204,245,295,245"/>
	</g>
</g>
<g id="rings">
	<path fill="none" stroke="#1C84D2" stroke-linecap="round" stroke-miterlimit="10" d="M295,5
		c74.217,0,148.435,28.313,205.061,84.939c113.252,113.252,113.252,296.87,0,410.122s-296.87,113.252-410.122,0
		s-113.252-296.87,0-410.122C146.565,33.313,220.783,5,295,5"/>
	<path fill="none" stroke="#1C84D2" stroke-linecap="round" stroke-miterlimit="10" d="M295,15
		c71.658,0,143.317,27.337,197.99,82.01c109.347,109.347,109.347,286.633,0,395.98s-286.633,109.347-395.98,0
		s-109.347-286.633,0-395.98C151.683,42.337,223.342,15,295,15"/>
	<path fill="none" stroke="#1C84D2" stroke-linecap="round" stroke-miterlimit="10" d="M295,25
		c69.099,0,138.198,26.36,190.919,79.081c105.442,105.442,105.442,276.396,0,381.838s-276.396,105.441-381.838,0
		s-105.442-276.396,0-381.838C156.802,51.36,225.901,25,295,25"/>
	<path fill="none" stroke="#1C84D2" stroke-linecap="round" stroke-miterlimit="10" d="M295,35
		c66.54,0,133.08,25.384,183.848,76.152c101.536,101.536,101.536,266.159,0,367.695s-266.159,101.536-367.696,0
		s-101.536-266.159,0-367.695C161.92,60.384,228.46,35,295,35"/>
	<path fill="none" stroke="#1C84D2" stroke-linecap="round" stroke-miterlimit="10" d="M295,45
		c63.981,0,127.961,24.408,176.777,73.223c97.631,97.631,97.631,255.922,0,353.553s-255.922,97.631-353.553,0
		s-97.631-255.922,0-353.553C167.039,69.408,231.019,45,295,45"/>
	<path fill="none" stroke="#1C84D2" stroke-linecap="round" stroke-miterlimit="10" d="M295,55
		c61.421,0,122.843,23.431,169.706,70.294c93.726,93.726,93.726,245.685,0,339.411s-245.685,93.726-339.411,0
		s-93.726-245.685,0-339.411C172.157,78.431,233.579,55,295,55"/>
	<path fill="none" stroke="#1C84D2" stroke-linecap="round" stroke-miterlimit="10" d="M295,65
		c58.862,0,117.724,22.455,162.635,67.365c89.821,89.821,89.821,235.449,0,325.269c-89.821,89.821-235.449,89.821-325.269,0
		s-89.821-235.449,0-325.269C177.276,87.455,236.138,65,295,65"/>
	<path fill="none" stroke="#1C84D2" stroke-linecap="round" stroke-miterlimit="10" d="M295,75
		c56.303,0,112.606,21.479,155.563,64.437c85.915,85.915,85.915,225.212,0,311.127s-225.212,85.915-311.127,0
		s-85.915-225.212,0-311.127C182.394,96.479,238.697,75,295,75"/>
	<path fill="none" stroke="#1C84D2" stroke-linecap="round" stroke-miterlimit="10" d="M295,85
		c53.744,0,107.487,20.503,148.492,61.508c82.01,82.01,82.01,214.975,0,296.985c-82.01,82.01-214.975,82.01-296.985,0
		c-82.01-82.01-82.01-214.975,0-296.985C187.513,105.503,241.256,85,295,85"/>
	<path fill="none" stroke="#1C84D2" stroke-linecap="round" stroke-miterlimit="10" d="M295,95
		c51.185,0,102.369,19.526,141.421,58.579c78.105,78.105,78.105,204.738,0,282.843s-204.738,78.105-282.843,0
		s-78.105-204.738,0-282.843C192.631,114.526,243.816,95,295,95"/>
	<path fill="none" stroke="#1C84D2" stroke-linecap="round" stroke-miterlimit="10" d="M295,105c48.625,0,97.25,18.55,134.35,55.65
		c74.2,74.2,74.2,194.501,0,268.701s-194.501,74.2-268.701,0s-74.2-194.501,0-268.701C197.75,123.55,246.375,105,295,105"/>
	<path fill="none" stroke="#D39720" stroke-linecap="round" stroke-miterlimit="10" d="M295,115
		c46.066,0,92.132,17.574,127.279,52.721c70.294,70.294,70.294,184.264,0,254.558s-184.264,70.294-254.558,0
		s-70.294-184.264,0-254.558C202.868,132.574,248.934,115,295,115"/>
	<path fill="none" stroke="#D39720" stroke-linecap="round" stroke-miterlimit="10" d="M295,125
		c43.507,0,87.014,16.597,120.208,49.792c66.389,66.389,66.389,174.027,0,240.416s-174.027,66.389-240.416,0
		s-66.389-174.027,0-240.416C207.986,141.597,251.493,125,295,125"/>
	<path fill="none" stroke="#D39720" stroke-linecap="round" stroke-miterlimit="10" d="M295,135
		c40.948,0,81.895,15.621,113.137,46.863c62.484,62.484,62.484,163.79,0,226.274s-163.79,62.484-226.274,0s-62.484-163.79,0-226.274
		C213.105,150.621,254.052,135,295,135"/>
	<path fill="none" stroke="#D39720" stroke-linecap="round" stroke-miterlimit="10" d="M295,145
		c38.388,0,76.777,14.645,106.066,43.934c58.579,58.579,58.579,153.553,0,212.132c-58.579,58.579-153.553,58.579-212.132,0
		c-58.579-58.579-58.579-153.553,0-212.132C218.223,159.645,256.612,145,295,145"/>
	<path fill="none" stroke="#D39720" stroke-linecap="round" stroke-miterlimit="10" d="M295,155
		c35.829,0,71.658,13.668,98.995,41.005c54.673,54.673,54.673,143.317,0,197.99s-143.316,54.673-197.99,0s-54.673-143.317,0-197.99
		C223.342,168.668,259.171,155,295,155"/>
	<path fill="none" stroke="#D39720" stroke-linecap="round" stroke-miterlimit="10" d="M295,165c33.27,0,66.54,12.692,91.924,38.076
		c50.768,50.768,50.768,133.08,0,183.848c-50.768,50.768-133.08,50.768-183.848,0c-50.768-50.768-50.768-133.08,0-183.848
		C228.46,177.692,261.73,165,295,165"/>
	<path fill="none" stroke="#D39720" stroke-linecap="round" stroke-miterlimit="10" d="M295,175
		c30.711,0,61.421,11.716,84.853,35.147c46.863,46.863,46.863,122.843,0,169.706s-122.843,46.863-169.706,0
		s-46.863-122.843,0-169.706C233.579,186.716,264.289,175,295,175"/>
	<path fill="none" stroke="#D39720" stroke-linecap="round" stroke-miterlimit="10" d="M295,185
		c28.151,0,56.303,10.739,77.782,32.218c42.958,42.958,42.958,112.606,0,155.563c-42.958,42.958-112.606,42.958-155.563,0
		c-42.958-42.958-42.958-112.606,0-155.563C238.697,195.739,266.849,185,295,185"/>
	<path fill="none" stroke="#1ED6B3" stroke-linecap="round" stroke-miterlimit="10" d="M295,195
		c25.592,0,51.184,9.763,70.711,29.289c39.052,39.052,39.052,102.369,0,141.421s-102.369,39.052-141.421,0
		s-39.052-102.369,0-141.421C243.816,204.763,269.408,195,295,195"/>
	<path fill="none" stroke="#1ED6B3" stroke-linecap="round" stroke-miterlimit="10" d="M295,205c23.033,0,46.066,8.787,63.64,26.36
		c35.147,35.147,35.147,92.132,0,127.279c-35.147,35.147-92.132,35.147-127.279,0c-35.147-35.147-35.147-92.132,0-127.279
		C248.934,213.787,271.967,205,295,205"/>
	<path fill="none" stroke="#1ED6B3" stroke-linecap="round" stroke-miterlimit="10" d="M295,215c20.474,0,40.948,7.81,56.569,23.431
		c31.242,31.242,31.242,81.895,0,113.137s-81.895,31.242-113.137,0s-31.242-81.895,0-113.137C254.052,222.811,274.526,215,295,215"
		/>
	<path fill="none" stroke="#1ED6B3" stroke-linecap="round" stroke-miterlimit="10" d="M295,225
		c17.915,0,35.829,6.834,49.497,20.503c27.337,27.337,27.337,71.658,0,98.995c-27.337,27.337-71.658,27.337-98.995,0
		c-27.337-27.337-27.337-71.658,0-98.995C259.171,231.834,277.085,225,295,225"/>
	<path fill="none" stroke="#1ED6B3" stroke-linecap="round" stroke-miterlimit="10" d="M295,235
		c15.355,0,30.711,5.858,42.426,17.574c23.431,23.431,23.431,61.421,0,84.853s-61.421,23.431-84.853,0s-23.431-61.421,0-84.853
		C264.289,240.858,279.645,235,295,235"/>
	<path fill="none" stroke="#1ED6B3" stroke-linecap="round" stroke-miterlimit="10" d="M295,245
		c12.796,0,25.592,4.882,35.355,14.645c19.526,19.526,19.526,51.184,0,70.711c-19.526,19.526-51.184,19.526-70.711,0
		c-19.526-19.526-19.526-51.185,0-70.711C269.408,249.882,282.204,245,295,245"/>
</g>
</svg>
