<?xml version="1.0" encoding="utf-8"?>
<!-- Generator: Adobe Illustrator 17.0.0, SVG Export Plug-In . SVG Version: 6.00 Build 0)  -->
<!DOCTYPE svg PUBLIC "-//W3C//DTD SVG 1.1//EN" "http://www.w3.org/Graphics/SVG/1.1/DTD/svg11.dtd">
<svg id="svg" viewBox="0 0 590 590"><desc>Created with Snap</desc><defs></defs>
	<g id="sections">
	<g id="webSection">
		<path fill="none" stroke="#1C84D2" stroke-linecap="round" stroke-miterlimit="10" d="M295,5
			c74.217,0,148.435,28.313,205.061,84.939c113.252,113.252,113.252,296.87,0,410.122s-296.87,113.252-410.122,0
			s-113.252-296.87,0-410.122C146.565,33.313,220.783,5,295,5" style="stroke-dasharray: 1822.3822021484375px; stroke-dashoffset: 1822.3822021484375px; stroke-width: 9px;"></path>
		<path fill="none" stroke="#1C84D2" stroke-linecap="round" stroke-miterlimit="10" d="M295,15
			c71.658,0,143.317,27.337,197.99,82.01c109.347,109.347,109.347,286.633,0,395.98s-286.633,109.347-395.98,0
			s-109.347-286.633,0-395.98C151.683,42.337,223.342,15,295,15" style="stroke-dasharray: 1759.5426025390625px; stroke-dashoffset: 1759.5426025390625px; stroke-width: 9px;"></path>
		<path fill="none" stroke="#1C84D2" stroke-linecap="round" stroke-miterlimit="10" d="M295,25
			c69.099,0,138.198,26.36,190.919,79.081c105.442,105.442,105.442,276.396,0,381.838s-276.396,105.441-381.838,0
			s-105.442-276.396,0-381.838C156.802,51.36,225.901,25,295,25" style="stroke-dasharray: 1696.702392578125px; stroke-dashoffset: 1696.702392578125px; stroke-width: 9px;"></path>
		<path fill="none" stroke="#1C84D2" stroke-linecap="round" stroke-miterlimit="10" d="M295,35
			c66.54,0,133.08,25.384,183.848,76.152c101.536,101.536,101.536,266.159,0,367.695s-266.159,101.536-367.696,0
			s-101.536-266.159,0-367.695C161.92,60.384,228.46,35,295,35" style="stroke-dasharray: 1633.859619140625px; stroke-dashoffset: 1633.859619140625px; stroke-width: 9px;"></path>
		<path fill="none" stroke="#1C84D2" stroke-linecap="round" stroke-miterlimit="10" d="M295,45
			c63.981,0,127.961,24.408,176.777,73.223c97.631,97.631,97.631,255.922,0,353.553s-255.922,97.631-353.553,0
			s-97.631-255.922,0-353.553C167.039,69.408,231.019,45,295,45" style="stroke-dasharray: 1571.01708984375px; stroke-dashoffset: 1571.01708984375px; stroke-width: 9px;"></path>
		<path fill="none" stroke="#1C84D2" stroke-linecap="round" stroke-miterlimit="10" d="M295,55
			c61.421,0,122.843,23.431,169.706,70.294c93.726,93.726,93.726,245.685,0,339.411s-245.685,93.726-339.411,0
			s-93.726-245.685,0-339.411C172.157,78.431,233.579,55,295,55" style="stroke-dasharray: 1508.177734375px; stroke-dashoffset: 1508.177734375px; stroke-width: 9px;"></path>
		<path fill="none" stroke="#1C84D2" stroke-linecap="round" stroke-miterlimit="10" d="M295,65
			c58.862,0,117.724,22.455,162.635,67.365c89.821,89.821,89.821,235.449,0,325.269c-89.821,89.821-235.449,89.821-325.269,0
			s-89.821-235.449,0-325.269C177.276,87.455,236.138,65,295,65" style="stroke-dasharray: 1445.3372802734375px; stroke-dashoffset: 1445.3372802734375px; stroke-width: 9px;"></path>
		<path fill="none" stroke="#1C84D2" stroke-linecap="round" stroke-miterlimit="10" d="M295,75
			c56.303,0,112.606,21.479,155.563,64.437c85.915,85.915,85.915,225.212,0,311.127s-225.212,85.915-311.127,0
			s-85.915-225.212,0-311.127C182.394,96.479,238.697,75,295,75" style="stroke-dasharray: 1382.4969482421875px; stroke-dashoffset: 1382.4969482421875px; stroke-width: 9px;"></path>
		<path fill="none" stroke="#1C84D2" stroke-linecap="round" stroke-miterlimit="10" d="M295,85
			c53.744,0,107.487,20.503,148.492,61.508c82.01,82.01,82.01,214.975,0,296.985c-82.01,82.01-214.975,82.01-296.985,0
			c-82.01-82.01-82.01-214.975,0-296.985C187.513,105.503,241.256,85,295,85" style="stroke-dasharray: 1319.656982421875px; stroke-dashoffset: 1319.656982421875px; stroke-width: 9px;"></path>
		<path fill="none" stroke="#1C84D2" stroke-linecap="round" stroke-miterlimit="10" d="M295,95
			c51.185,0,102.369,19.526,141.421,58.579c78.105,78.105,78.105,204.738,0,282.843s-204.738,78.105-282.843,0
			s-78.105-204.738,0-282.843C192.631,114.526,243.816,95,295,95" style="stroke-dasharray: 1256.8170166015625px; stroke-dashoffset: 1256.8170166015625px; stroke-width: 9px;"></path>
		<path fill="none" stroke="#1C84D2" stroke-linecap="round" stroke-miterlimit="10" d="M295,105c48.625,0,97.25,18.55,134.35,55.65
			c74.2,74.2,74.2,194.501,0,268.701s-194.501,74.2-268.701,0s-74.2-194.501,0-268.701C197.75,123.55,246.375,105,295,105" style="stroke-dasharray: 1193.976806640625px; stroke-dashoffset: 1193.976806640625px; stroke-width: 9px;"></path>
	</g>
	<g id="appSection">
		<path fill="none" stroke="#D39720" stroke-linecap="round" stroke-miterlimit="10" d="M295,115
			c46.066,0,92.132,17.574,127.279,52.721c70.294,70.294,70.294,184.264,0,254.558s-184.264,70.294-254.558,0
			s-70.294-184.264,0-254.558C202.868,132.574,248.934,115,295,115" style="stroke-dasharray: 1131.1319580078125px; stroke-dashoffset: 1131.1319580078125px; stroke-width: 9px;"></path>
		<path fill="none" stroke="#D39720" stroke-linecap="round" stroke-miterlimit="10" d="M295,125
			c43.507,0,87.014,16.597,120.208,49.792c66.389,66.389,66.389,174.027,0,240.416s-174.027,66.389-240.416,0
			s-66.389-174.027,0-240.416C207.986,141.597,251.493,125,295,125" style="stroke-dasharray: 1068.2919921875px; stroke-dashoffset: 1068.2919921875px; stroke-width: 9px;"></path>
		<path fill="none" stroke="#D39720" stroke-linecap="round" stroke-miterlimit="10" d="M295,135
			c40.948,0,81.895,15.621,113.137,46.863c62.484,62.484,62.484,163.79,0,226.274s-163.79,62.484-226.274,0
			s-62.484-163.79,0-226.274C213.105,150.621,254.052,135,295,135" style="stroke-dasharray: 1005.4520263671875px; stroke-dashoffset: 1005.4520263671875px; stroke-width: 9px;"></path>
		<path fill="none" stroke="#D39720" stroke-linecap="round" stroke-miterlimit="10" d="M295,145
			c38.388,0,76.777,14.645,106.066,43.934c58.579,58.579,58.579,153.553,0,212.132c-58.579,58.579-153.553,58.579-212.132,0
			c-58.579-58.579-58.579-153.553,0-212.132C218.223,159.645,256.612,145,295,145" style="stroke-dasharray: 942.6121215820313px; stroke-dashoffset: 942.6121215820313px; stroke-width: 9px;"></path>
		<path fill="none" stroke="#D39720" stroke-linecap="round" stroke-miterlimit="10" d="M295,155
			c35.829,0,71.658,13.668,98.995,41.005c54.673,54.673,54.673,143.317,0,197.99s-143.316,54.673-197.99,0s-54.673-143.317,0-197.99
			C223.342,168.668,259.171,155,295,155" style="stroke-dasharray: 879.7708129882813px; stroke-dashoffset: 879.7708129882813px; stroke-width: 9px;"></path>
		<path fill="none" stroke="#D39720" stroke-linecap="round" stroke-miterlimit="10" d="M295,165
			c33.27,0,66.54,12.692,91.924,38.076c50.768,50.768,50.768,133.08,0,183.848c-50.768,50.768-133.08,50.768-183.848,0
			c-50.768-50.768-50.768-133.08,0-183.848C228.46,177.692,261.73,165,295,165" style="stroke-dasharray: 816.9305419921875px; stroke-dashoffset: 816.9305419921875px; stroke-width: 9px;"></path>
		<path fill="none" stroke="#D39720" stroke-linecap="round" stroke-miterlimit="10" d="M295,175
			c30.711,0,61.421,11.716,84.853,35.147c46.863,46.863,46.863,122.843,0,169.706s-122.843,46.863-169.706,0
			s-46.863-122.843,0-169.706C233.579,186.716,264.289,175,295,175" style="stroke-dasharray: 754.0903930664063px; stroke-dashoffset: 754.0903930664063px; stroke-width: 9px;"></path>
		<path fill="none" stroke="#D39720" stroke-linecap="round" stroke-miterlimit="10" d="M295,185
			c28.151,0,56.303,10.739,77.782,32.218c42.958,42.958,42.958,112.606,0,155.563c-42.958,42.958-112.606,42.958-155.563,0
			c-42.958-42.958-42.958-112.606,0-155.563C238.697,195.739,266.849,185,295,185" style="stroke-dasharray: 691.2474975585938px; stroke-dashoffset: 691.2474975585938px; stroke-width: 9px;"></path>
	</g>
	<g id="dbSection">
		<path fill="none" stroke="#1ED6B3" stroke-linecap="round" stroke-miterlimit="10" d="M295,195
			c25.592,0,51.184,9.763,70.711,29.289c39.052,39.052,39.052,102.369,0,141.421s-102.369,39.052-141.421,0
			s-39.052-102.369,0-141.421C243.816,204.763,269.408,195,295,195" style="stroke-dasharray: 628.4052124023438px; stroke-dashoffset: 628.4052124023438px; stroke-width: 9px;"></path>
		<path fill="none" stroke="#1ED6B3" stroke-linecap="round" stroke-miterlimit="10" d="M295,205c23.033,0,46.066,8.787,63.64,26.36
			c35.147,35.147,35.147,92.132,0,127.279c-35.147,35.147-92.132,35.147-127.279,0c-35.147-35.147-35.147-92.132,0-127.279
			C248.934,213.787,271.967,205,295,205" style="stroke-dasharray: 565.5653076171875px; stroke-dashoffset: 565.5653076171875px; stroke-width: 9px;"></path>
		<path fill="none" stroke="#1ED6B3" stroke-linecap="round" stroke-miterlimit="10" d="M295,215
			c20.474,0,40.948,7.81,56.569,23.431c31.242,31.242,31.242,81.895,0,113.137s-81.895,31.242-113.137,0s-31.242-81.895,0-113.137
			C254.052,222.811,274.526,215,295,215" style="stroke-dasharray: 502.7253723144531px; stroke-dashoffset: 502.7253723144531px; stroke-width: 9px;"></path>
		<path fill="none" stroke="#1ED6B3" stroke-linecap="round" stroke-miterlimit="10" d="M295,225
			c17.915,0,35.829,6.834,49.497,20.503c27.337,27.337,27.337,71.658,0,98.995c-27.337,27.337-71.658,27.337-98.995,0
			c-27.337-27.337-27.337-71.658,0-98.995C259.171,231.834,277.085,225,295,225" style="stroke-dasharray: 439.8870544433594px; stroke-dashoffset: 439.8870544433594px; stroke-width: 9px;"></path>
		<path fill="none" stroke="#1ED6B3" stroke-linecap="round" stroke-miterlimit="10" d="M295,235
			c15.355,0,30.711,5.858,42.426,17.574c23.431,23.431,23.431,61.421,0,84.853s-61.421,23.431-84.853,0s-23.431-61.421,0-84.853
			C264.289,240.858,279.645,235,295,235" style="stroke-dasharray: 377.0467529296875px; stroke-dashoffset: 377.0467529296875px; stroke-width: 9px;"></path>
		<path fill="none" stroke="#1ED6B3" stroke-linecap="round" stroke-miterlimit="10" d="M295,245
			c12.796,0,25.592,4.882,35.355,14.645c19.526,19.526,19.526,51.184,0,70.711c-19.526,19.526-51.184,19.526-70.711,0
			c-19.526-19.526-19.526-51.185,0-70.711C269.408,249.882,282.204,245,295,245" style="stroke-dasharray: 314.2060852050781px; stroke-dashoffset: 314.2060852050781px; stroke-width: 9px;"></path>
	</g>
</g>
</svg>